<svg width="464" height="478" viewBox="0 0 464 478" fill="none" xmlns="http://www.w3.org/2000/svg">
<path d="M275.525 273.63C275.61 273.704 275.691 273.783 275.767 273.866L276.457 274.561L279.118 277.306L289.157 287.779L324.73 325.138H324.319L364.67 280.121L364.948 279.815L365.178 280.157L368.117 284.469L398.646 329.238L398.223 329.167L427.567 306.335L427.736 306.206L427.881 306.359L450.282 331.1L456.33 337.85L457.902 339.618C458.253 340.018 458.423 340.23 458.423 340.23C458.423 340.23 458.217 340.042 457.854 339.665L456.257 337.85L450.089 331.182L427.542 306.618H427.857L398.586 329.603L398.344 329.792L398.162 329.533L367.597 284.834L364.645 280.51H365.141C350.457 296.886 336.644 312.261 324.742 325.527L324.537 325.751L324.331 325.527C309.719 310.046 297.491 297.11 288.915 288.015L278.997 277.412L276.396 274.608C276.118 274.29 275.9 274.054 275.731 273.877C275.561 273.701 275.513 273.642 275.525 273.63Z" fill="#E6E6E6"/>
<path d="M320.557 325.444C320.55 326.263 320.793 327.065 321.255 327.748C321.718 328.432 322.378 328.966 323.153 329.282C323.928 329.599 324.783 329.683 325.607 329.525C326.432 329.367 327.189 328.974 327.784 328.395C328.378 327.816 328.782 327.078 328.944 326.275C329.106 325.472 329.019 324.64 328.694 323.885C328.369 323.13 327.821 322.487 327.119 322.036C326.418 321.586 325.594 321.349 324.754 321.356C323.643 321.362 322.579 321.795 321.793 322.56C321.007 323.326 320.563 324.362 320.557 325.444Z" fill="#E0E0E0"/>
<path d="M394.667 330.358C394.672 331.174 394.925 331.97 395.395 332.646C395.865 333.321 396.53 333.846 397.306 334.154C398.082 334.461 398.934 334.537 399.755 334.373C400.575 334.208 401.327 333.81 401.915 333.229C402.503 332.648 402.901 331.91 403.059 331.108C403.216 330.307 403.125 329.478 402.799 328.726C402.472 327.975 401.924 327.335 401.223 326.887C400.523 326.439 399.702 326.204 398.864 326.211C397.744 326.22 396.672 326.662 395.886 327.439C395.099 328.217 394.661 329.266 394.667 330.358Z" fill="#E0E0E0"/>
<path d="M423.49 307.655C423.498 308.468 423.752 309.261 424.222 309.933C424.692 310.605 425.356 311.126 426.13 311.431C426.904 311.736 427.753 311.81 428.571 311.645C429.388 311.479 430.137 311.081 430.722 310.501C431.307 309.921 431.703 309.185 431.859 308.387C432.014 307.588 431.924 306.762 431.598 306.013C431.271 305.264 430.725 304.627 430.027 304.181C429.328 303.735 428.51 303.501 427.675 303.507C426.557 303.52 425.489 303.963 424.705 304.74C423.92 305.517 423.484 306.565 423.49 307.655Z" fill="#E0E0E0"/>
<path d="M360.679 280.675C360.684 281.491 360.937 282.287 361.407 282.963C361.876 283.639 362.541 284.164 363.317 284.471C364.093 284.778 364.946 284.855 365.766 284.69C366.587 284.525 367.339 284.127 367.927 283.546C368.515 282.965 368.913 282.227 369.07 281.425C369.228 280.624 369.137 279.795 368.811 279.043C368.484 278.292 367.936 277.652 367.235 277.204C366.535 276.756 365.714 276.521 364.876 276.528C363.755 276.537 362.684 276.979 361.897 277.756C361.111 278.534 360.672 279.583 360.679 280.675Z" fill="#E0E0E0"/>
<path d="M455.084 340.348C455.089 341.164 455.342 341.96 455.812 342.636C456.282 343.312 456.947 343.836 457.723 344.144C458.499 344.451 459.351 344.528 460.172 344.363C460.992 344.198 461.744 343.8 462.332 343.219C462.92 342.638 463.318 341.9 463.476 341.098C463.633 340.297 463.542 339.468 463.216 338.716C462.889 337.965 462.341 337.325 461.64 336.877C460.94 336.429 460.119 336.194 459.281 336.201C458.161 336.21 457.089 336.652 456.303 337.429C455.516 338.207 455.078 339.256 455.084 340.348Z" fill="#E0E0E0"/>
<path d="M84.3067 28.3525H57.1279V133.643H84.3067V28.3525Z" fill="#E6E6E6"/>
<path d="M124.282 51.3149H97.1035V133.632H124.282V51.3149Z" fill="#E6E6E6"/>
<path d="M164.875 70.1177H137.696V133.631H164.875V70.1177Z" fill="#E6E6E6"/>
<path d="M202.456 95.9189H175.277V133.643H202.456V95.9189Z" fill="#E6E6E6"/>
<path d="M180.696 2.08008C180.696 2.08008 180.442 2.39818 179.946 2.96368L177.684 5.49669L169.084 15.0396L138.071 49.2057L137.902 49.3825L137.708 49.2411L117.472 34.1373H117.884L89.5799 69.081L89.2412 69.5051L89.0356 69.7643L88.7816 69.5405L50.6684 36.7528H51.0917C36.1295 55.8858 23.4533 72.2266 14.3816 83.7842L3.8222 97.2268L1.00394 100.761L0.266104 101.668C0.183752 101.776 0.094891 101.878 0 101.975C0.0687085 101.86 0.1455 101.749 0.229819 101.645L0.931356 100.702L3.67706 97.0854L14.0914 83.5485L50.62 36.3522L50.8135 36.1048L51.0434 36.3051L89.2049 69.0103H88.7453L89.084 68.5862L117.424 33.666L117.605 33.4422L117.835 33.6189L138.035 48.7109H137.672L168.842 14.8158C172.604 10.7512 175.555 7.55844 177.575 5.39066L179.886 2.91656C180.418 2.32749 180.696 2.08008 180.696 2.08008Z" fill="#E6E6E6"/>
<path d="M176.208 26.5027C176.198 26.324 176.219 26.1449 176.269 25.9726L176.571 24.4645C176.886 23.0625 177.309 21.2011 177.781 18.9273C178.857 14.2147 180.381 7.78205 182.135 0.571829L182.522 0.92527L181.155 1.33762C173.571 3.61143 166.701 5.62605 161.718 7.06339L155.803 8.72456L154.182 9.1487C153.996 9.2162 153.8 9.25207 153.602 9.25473C153.775 9.16292 153.957 9.08794 154.146 9.03088L155.73 8.50072L161.585 6.65104C166.532 5.10767 173.39 3.02236 180.938 0.760331L182.304 0.359763L182.837 0.194824L182.704 0.724984C181.022 7.97055 179.486 14.3796 178.277 19.0333C177.684 21.2836 177.2 23.1332 176.849 24.5234C176.68 25.1007 176.535 25.5956 176.426 25.9961C176.379 26.1745 176.306 26.3452 176.208 26.5027Z" fill="#E6E6E6"/>
<path d="M390.615 180.109C396.016 180.023 401.322 181.5 405.861 184.351C410.401 187.202 413.97 191.301 416.118 196.128C418.266 200.955 418.897 206.294 417.93 211.47C416.963 216.647 414.442 221.427 410.686 225.208C406.929 228.989 402.106 231.599 396.827 232.71C391.547 233.821 386.048 233.383 381.024 231.449C376 229.516 371.678 226.176 368.604 221.85C365.529 217.524 363.84 212.408 363.751 207.147C363.641 200.094 366.408 193.287 371.444 188.218C376.48 183.149 383.375 180.233 390.615 180.109ZM391.269 219.435C393.851 219.388 396.36 218.597 398.481 217.161C400.601 215.726 402.238 213.71 403.182 211.369C404.127 209.028 404.339 206.467 403.79 204.009C403.241 201.551 401.956 199.307 400.098 197.56C398.24 195.813 395.893 194.641 393.351 194.193C390.81 193.745 388.19 194.041 385.821 195.043C383.452 196.045 381.442 197.708 380.043 199.823C378.645 201.938 377.921 204.408 377.964 206.923C377.993 208.596 378.361 210.246 379.046 211.781C379.731 213.315 380.72 214.702 381.955 215.864C383.191 217.026 384.649 217.939 386.247 218.552C387.845 219.165 389.552 219.465 391.269 219.435Z" fill="#E0E0E0"/>
<path d="M390.566 176.798C398.71 176.685 406.569 179.721 412.419 185.242C418.269 190.764 421.632 198.319 421.772 206.252L403.145 206.723C403.024 198.841 397.545 195.636 391.049 195.236C389.453 195.143 387.855 195.373 386.354 195.911C384.853 196.449 383.484 197.284 382.33 198.363C381.177 199.442 380.266 200.741 379.653 202.18C379.041 203.619 378.741 205.166 378.772 206.723L360.339 207.206C360.212 199.271 363.325 191.611 368.992 185.91C374.66 180.209 382.419 176.931 390.566 176.798Z" fill="#F0F0F0"/>
<path d="M169.46 297.334C178.862 287.723 191.763 282.092 205.385 281.651C219.007 281.211 232.262 285.996 242.299 294.978C247.23 299.404 251.209 304.739 254.007 310.674C256.805 316.609 258.365 323.026 258.598 329.553C258.831 336.08 257.732 342.587 255.364 348.697C252.995 354.807 249.406 360.399 244.803 365.148C235.4 374.758 222.5 380.39 208.878 380.83C195.256 381.271 182 376.486 171.963 367.504C167.033 363.078 163.054 357.743 160.256 351.807C157.458 345.872 155.897 339.455 155.664 332.928C155.431 326.401 156.531 319.894 158.899 313.784C161.267 307.674 164.857 302.083 169.46 297.334ZM225.099 347.452C227.306 345.183 229.027 342.508 230.162 339.585C231.297 336.661 231.824 333.546 231.712 330.423C231.599 327.299 230.849 324.228 229.507 321.389C228.164 318.55 226.254 316 223.89 313.887C219.085 309.597 212.744 307.317 206.231 307.538C199.717 307.758 193.554 310.461 189.066 315.065C186.86 317.334 185.139 320.009 184.003 322.932C182.868 325.856 182.342 328.971 182.454 332.094C182.567 335.218 183.316 338.289 184.659 341.128C186.002 343.967 187.911 346.517 190.276 348.63C195.08 352.93 201.427 355.216 207.948 354.996C214.468 354.775 220.637 352.066 225.123 347.452H225.099Z" fill="#F5F5F5"/>
<path d="M169.459 297.334C178.862 287.723 191.762 282.092 205.384 281.651C219.006 281.211 232.262 285.996 242.298 294.978L223.937 313.922C219.133 309.633 212.792 307.353 206.278 307.573C199.765 307.793 193.601 310.496 189.114 315.1C186.907 317.37 185.186 320.044 184.051 322.968C182.916 325.891 182.389 329.006 182.502 332.13C182.614 335.253 183.364 338.324 184.707 341.163C186.05 344.002 187.959 346.552 190.324 348.666L171.938 367.539C167.004 363.111 163.022 357.773 160.223 351.833C157.424 345.894 155.864 339.473 155.633 332.941C155.403 326.41 156.506 319.9 158.879 313.787C161.253 307.674 164.849 302.082 169.459 297.334Z" fill="#E0E0E0"/>
<path d="M240.195 286.837C265.596 309.729 268.68 346.923 244.912 371.475L219.112 349.809C230.47 338.087 232.938 322.429 220.782 311.484L240.195 286.837Z" fill="#EBEBEB"/>
<path d="M216.426 351.363L231.751 380.887C238.088 378.625 243.798 374.959 248.431 370.178L220.901 348.524L216.426 351.363Z" fill="#E0E0E0"/>
<path d="M274.243 78.8357C274.019 65.6019 277.831 52.6008 285.195 41.4772C292.559 30.3537 303.145 21.6075 315.613 16.3452C328.082 11.0828 341.873 9.54072 355.241 11.914C368.609 14.2872 380.955 20.4692 390.715 29.6778C400.476 38.8865 407.213 50.708 410.075 63.6468C412.936 76.5857 411.794 90.0606 406.791 102.367C401.789 114.673 393.151 125.257 381.972 132.781C370.792 140.305 357.573 144.43 343.986 144.635C325.788 144.887 308.23 138.104 295.157 125.77C282.085 113.437 274.564 96.5597 274.243 78.8357ZM375.761 77.2452C375.655 70.9201 373.626 64.7676 369.93 59.5658C366.234 54.3639 361.038 50.3462 354.998 48.0208C348.958 45.6954 342.345 45.1666 335.997 46.5013C329.649 47.836 323.849 50.9743 319.332 55.5193C314.814 60.0644 311.782 65.8121 310.618 72.0356C309.454 78.2592 310.211 84.6792 312.793 90.4838C315.375 96.2884 319.666 101.217 325.123 104.646C330.581 108.076 336.96 109.852 343.454 109.75C352.16 109.604 360.452 106.1 366.509 100.006C372.566 93.912 375.894 85.7262 375.761 77.2452Z" fill="#FAFAFA"/>
<path d="M274.243 78.8361C273.968 61.0993 280.93 43.9808 293.599 31.2382C306.269 18.4955 323.612 11.1698 341.821 10.8691L342.402 45.7775C333.692 45.9134 325.395 49.4137 319.335 55.5085C313.275 61.6032 309.949 69.7931 310.088 78.2765C310.228 86.7598 313.822 94.8418 320.079 100.744C326.336 106.647 334.745 109.886 343.454 109.751L343.986 144.635C325.787 144.894 308.225 138.112 295.151 125.778C282.077 113.443 274.558 96.5621 274.243 78.8361Z" fill="#E0E0E0"/>
<path d="M335.652 5.49651C379.958 4.80141 415.314 38.1428 416.015 81.2981L374.08 81.9579C373.741 61.3168 357.545 48.3219 336.366 48.6636L335.652 5.49651Z" fill="#F0F0F0"/>
<path d="M416.561 476.789C416.561 476.954 326.122 477.095 214.565 477.095C103.007 477.095 12.5684 476.954 12.5684 476.789C12.5684 476.624 102.983 476.471 214.565 476.471C326.146 476.471 416.561 476.612 416.561 476.789Z" fill="#263238"/>
<path d="M136.511 313.427L360.642 311.86V314.924L136.511 316.879V313.427Z" fill="#263238"/>
<path d="M131.625 91.477L136.729 315.253L360.643 313.557V87.7188L131.625 91.477Z" fill="white"/>
<path d="M131.625 91.4769L360.643 87.4595H360.921V87.7304C360.921 152.375 360.921 228.66 360.921 310.046V313.875H360.607L136.693 315.536H136.427V315.277C133.536 181.157 131.649 93.7861 131.589 91.4887C131.589 93.7507 133.742 181.157 136.959 315.253L136.693 314.994L360.607 313.262L360.292 313.568V310.034C360.292 228.648 360.292 152.363 360.292 87.7187L360.57 87.9896L131.625 91.4769Z" fill="#263238"/>
<path d="M130.729 92.973L361.622 91.6889L361.912 82.252L130.729 83.6539V92.973Z" fill="#263238"/>
<path d="M241.259 321.356C240.871 321.356 240.46 319.601 240.351 317.409C240.242 315.218 240.484 313.427 240.871 313.404C241.259 313.38 241.67 315.147 241.779 317.339C241.887 319.53 241.658 321.356 241.259 321.356Z" fill="#263238"/>
<path d="M241.175 319.742C241.175 319.659 241.562 319.636 242.167 319.871C242.532 320.021 242.873 320.219 243.183 320.46C243.599 320.786 243.948 321.186 244.211 321.639C244.569 322.265 244.75 322.973 244.733 323.69C244.716 324.406 244.502 325.106 244.114 325.715C243.881 326.082 243.587 326.409 243.243 326.681C242.884 326.962 242.474 327.174 242.033 327.305C241.098 327.557 240.103 327.486 239.215 327.105C238.766 326.91 238.357 326.639 238.006 326.304C237.657 325.969 237.381 325.568 237.195 325.126C236.86 324.322 236.788 323.438 236.99 322.593C237.138 321.889 237.487 321.239 237.996 320.719C238.505 320.198 239.154 319.827 239.868 319.648C240.783 319.404 241.757 319.488 242.614 319.883C243.195 320.166 243.412 320.46 243.364 320.531C243.316 320.602 242.989 320.531 242.433 320.39C241.675 320.252 240.893 320.317 240.171 320.578C239.705 320.755 239.291 321.037 238.961 321.403C238.584 321.834 238.337 322.359 238.249 322.919C238.162 323.479 238.237 324.051 238.465 324.572C238.729 325.132 239.2 325.574 239.784 325.809C240.365 326.063 241.017 326.117 241.634 325.962C242.202 325.819 242.694 325.475 243.013 324.996C243.328 324.545 243.516 324.021 243.558 323.477C243.594 323.23 243.594 322.98 243.558 322.734C243.518 322.503 243.449 322.277 243.352 322.063C243.042 321.37 242.555 320.765 241.937 320.307C241.489 320.001 241.175 319.836 241.175 319.742Z" fill="#263238"/>
<path d="M274.486 213.933C274.486 213.933 274.486 213.933 274.34 213.933H273.929L272.333 214.004L266.176 214.263L243.533 215.088C224.41 215.771 197.981 216.678 168.806 217.656L158.767 217.986H158.537V217.762C156.505 191.76 154.667 168.457 153.397 151.704C152.768 143.339 152.272 136.612 151.921 131.982C151.764 129.625 151.631 127.87 151.546 126.656C151.546 126.044 151.474 125.584 151.461 125.266C151.449 124.948 151.461 124.995 151.461 124.913C151.461 124.83 151.461 124.795 151.461 124.795C151.467 124.834 151.467 124.874 151.461 124.913C151.461 124.995 151.461 125.113 151.461 125.266C151.461 125.419 151.534 126.044 151.594 126.645C151.691 127.823 151.848 129.649 152.054 131.97C152.429 136.6 152.985 143.327 153.675 151.668C155.03 168.374 156.892 191.619 158.949 217.727L158.707 217.515L168.746 217.173C197.921 216.207 224.386 215.347 243.473 214.758L266.128 214.074L272.284 213.91H273.881H274.437L274.486 213.933Z" fill="#455A64"/>
<path d="M193.409 117.55V120.554L225.317 119.07V116.548L193.409 117.55Z" fill="#263238"/>
<path d="M169.255 211.365H180.346L178.604 182.041H167.73L169.255 211.365Z" fill="#5C5CFF"/>
<path d="M189.357 211.376H200.437L198.707 170.389H187.833L189.357 211.376Z" fill="#5C5CFF"/>
<path d="M208.177 210.069H219.269L217.527 156.404H206.665L208.177 210.069Z" fill="#5C5CFF"/>
<path d="M251.359 207.984H262.439L260.709 134.845H249.835L251.359 207.984Z" fill="#5C5CFF"/>
<path d="M230.348 208.231H241.428L239.686 145.294H228.824L230.348 208.231Z" fill="#5C5CFF"/>
<path d="M162.287 174.441C161.997 174.006 181.81 161.14 206.521 145.707C231.232 130.273 251.529 118.114 251.819 118.609C252.109 119.104 232.297 131.911 207.573 147.344C182.85 162.778 162.553 174.877 162.287 174.441Z" fill="#5C5CFF"/>
<path d="M240.848 118.563C240.751 118.045 247.924 116.301 256.898 114.652L259.172 114.239L257.878 116.112L257.806 116.219C252.677 123.641 248.129 129.426 247.706 129.178C247.282 128.931 251.068 122.639 256.173 115.205L256.245 115.099L257.237 116.56C248.274 118.151 240.944 119.07 240.848 118.563Z" fill="#5C5CFF"/>
<path d="M167.73 221.273H179.318L179.681 223.276H167.73V221.273Z" fill="#263238"/>
<path d="M188.243 220.448H199.831L200.194 222.451H188.243V220.448Z" fill="#263238"/>
<path d="M209.363 219.859H220.951L221.314 221.862H209.363V219.859Z" fill="#263238"/>
<path d="M229.152 219.376H240.74L241.103 221.391H229.152V219.376Z" fill="#263238"/>
<path d="M253.669 218.669H265.257L265.619 220.684H253.669V218.669Z" fill="#263238"/>
<path d="M305.644 298.524C326.072 298.524 342.632 282.394 342.632 262.496C342.632 242.599 326.072 226.469 305.644 226.469C285.215 226.469 268.655 242.599 268.655 262.496C268.655 282.394 285.215 298.524 305.644 298.524Z" fill="#5C5CFF"/>
<path opacity="0.3" d="M305.644 298.524C326.072 298.524 342.632 282.394 342.632 262.496C342.632 242.599 326.072 226.469 305.644 226.469C285.215 226.469 268.655 242.599 268.655 262.496C268.655 282.394 285.215 298.524 305.644 298.524Z" fill="black"/>
<path d="M305.643 262.449L269.562 270.354C263.756 244.435 285.214 226.421 305.643 226.421" fill="#5C5CFF"/>
<path d="M305.693 262.449L305.451 226.421C332.69 226.421 346.189 250.679 341.835 270.119L305.693 262.449Z" fill="#5C5CFF"/>
<path d="M305.693 262.449L305.451 226.421C332.69 226.421 346.189 250.679 341.835 270.119L305.693 262.449Z" fill="#5C5CFF"/>
<path opacity="0.1" d="M305.693 262.449L305.451 226.421C332.69 226.421 346.189 250.679 341.835 270.119L305.693 262.449Z" fill="black"/>
<path d="M343.587 177.187C342.869 176.719 342.103 176.324 341.301 176.009C339.067 175.343 336.671 175.409 334.479 176.197C331.649 177.057 328.843 179.249 326.121 181.994C323.4 184.739 320.485 188.061 316.227 190.005C314.173 190.999 311.86 191.373 309.587 191.077C307.535 190.663 305.553 189.973 303.696 189.027C302.062 188.198 300.315 187.599 298.507 187.248C296.935 187.008 295.325 187.204 293.863 187.814C291.71 188.704 289.949 190.306 288.891 192.338C288.551 193.101 288.272 193.889 288.057 194.694C288.094 193.842 288.304 193.005 288.673 192.232C289.686 190.086 291.466 188.374 293.681 187.413C295.198 186.755 296.874 186.523 298.519 186.742C300.387 187.079 302.195 187.674 303.89 188.509C305.698 189.423 307.627 190.089 309.623 190.488C311.775 190.749 313.958 190.388 315.901 189.451C319.989 187.59 322.856 184.291 325.65 181.593C328.444 178.895 331.335 176.621 334.274 175.785C336.557 175.009 339.042 175.009 341.326 175.785C341.935 176.014 342.509 176.323 343.031 176.704C343.236 176.842 343.423 177.004 343.587 177.187Z" fill="#263238"/>
<path d="M346.72 200.466C346.72 200.643 333.584 200.773 317.388 200.773C301.192 200.773 288.057 200.643 288.057 200.466C288.057 200.29 301.192 200.16 317.388 200.16C333.584 200.16 346.72 200.302 346.72 200.466Z" fill="#263238"/>
<path d="M343.455 200.467C343.286 200.467 343.141 193.186 343.141 184.197C343.141 175.208 343.286 167.938 343.455 167.938C343.624 167.938 343.77 175.219 343.77 184.197C343.77 193.174 343.637 200.467 343.455 200.467Z" fill="#263238"/>
<path d="M293.972 186.765C293.972 186.765 293.887 186.648 293.972 186.436C294.028 186.287 294.116 186.152 294.231 186.04C294.346 185.928 294.484 185.842 294.637 185.788C294.867 185.688 295.121 185.653 295.37 185.684C295.62 185.715 295.855 185.812 296.052 185.964C296.266 186.197 296.391 186.494 296.409 186.805C296.427 187.117 296.336 187.425 296.15 187.679C295.965 187.934 295.696 188.119 295.388 188.206C295.081 188.292 294.752 188.275 294.456 188.156C294.248 188.034 294.076 187.861 293.959 187.654C293.842 187.447 293.784 187.214 293.791 186.977C293.788 186.82 293.818 186.664 293.878 186.519C293.938 186.373 294.028 186.241 294.141 186.129C294.323 185.988 294.456 185.988 294.468 186.011C294.48 186.035 294.141 186.353 294.226 186.954C294.243 187.108 294.296 187.257 294.383 187.388C294.469 187.519 294.585 187.628 294.722 187.708C294.892 187.75 295.07 187.74 295.234 187.682C295.399 187.623 295.541 187.518 295.643 187.379C295.745 187.24 295.801 187.075 295.805 186.905C295.809 186.734 295.761 186.567 295.665 186.424C295.544 186.327 295.4 186.26 295.246 186.229C295.092 186.198 294.933 186.204 294.782 186.247C294.165 186.341 294.057 186.789 293.972 186.765Z" fill="#263238"/>
<path d="M333.524 174.949C333.524 174.949 333.524 174.807 333.741 174.689C334.023 174.552 334.348 174.526 334.649 174.619C334.887 174.682 335.104 174.807 335.274 174.982C335.445 175.156 335.563 175.373 335.616 175.608C335.635 175.912 335.548 176.213 335.369 176.463C335.191 176.713 334.931 176.897 334.632 176.985C334.333 177.074 334.012 177.061 333.721 176.951C333.43 176.84 333.186 176.637 333.028 176.374C332.941 176.147 332.918 175.901 332.963 175.663C333.008 175.424 333.118 175.202 333.282 175.019C333.486 174.784 333.777 174.636 334.092 174.607C334.31 174.607 334.419 174.678 334.407 174.713C334.395 174.748 333.947 174.772 333.645 175.278C333.561 175.405 333.509 175.548 333.492 175.697C333.475 175.847 333.494 175.998 333.548 176.138C333.654 176.266 333.797 176.359 333.958 176.407C334.119 176.454 334.291 176.454 334.452 176.406C334.613 176.358 334.756 176.264 334.862 176.137C334.968 176.009 335.033 175.854 335.048 175.691C335.016 175.544 334.949 175.407 334.852 175.29C334.755 175.174 334.632 175.081 334.491 175.019C333.959 174.76 333.584 175.031 333.524 174.949Z" fill="#263238"/>
<path d="M342.414 136.388C342.414 136.553 329.689 136.694 314.001 136.694C298.313 136.694 285.589 136.553 285.589 136.388C285.589 136.223 298.301 136.082 314.001 136.082C329.701 136.082 342.414 136.246 342.414 136.388Z" fill="#263238"/>
<path d="M342.414 144.105C342.414 144.281 329.689 144.411 314.001 144.411C298.313 144.411 285.589 144.281 285.589 144.105C285.589 143.928 298.301 143.798 314.001 143.798C329.701 143.798 342.414 143.94 342.414 144.105Z" fill="#263238"/>
<path d="M342.414 151.798C342.414 151.962 329.689 152.104 314.001 152.104C298.313 152.104 285.589 151.962 285.589 151.798C285.589 151.633 298.301 151.491 314.001 151.491C329.701 151.491 342.414 151.621 342.414 151.798Z" fill="#263238"/>
<path d="M342.414 159.479C342.414 159.656 329.689 159.785 314.001 159.785C298.313 159.785 285.589 159.656 285.589 159.479C285.589 159.302 298.301 159.173 314.001 159.173C329.701 159.173 342.414 159.314 342.414 159.479Z" fill="#263238"/>
<path d="M315.828 122.356H285.589V124.842H315.828V122.356Z" fill="#263238"/>
<path d="M191.002 245.778H160.763V248.264H191.002V245.778Z" fill="#263238"/>
<path d="M243.509 260.187C243.509 260.363 225.16 260.493 202.529 260.493C179.898 260.493 161.537 260.363 161.537 260.187C161.537 260.01 179.886 259.88 202.529 259.88C225.172 259.88 243.509 260.022 243.509 260.187Z" fill="#263238"/>
<path d="M243.992 267.162C243.992 267.327 225.317 267.468 202.287 267.468C179.257 267.468 160.581 267.327 160.581 267.162C160.581 266.997 179.245 266.855 202.287 266.855C225.329 266.855 243.992 267.02 243.992 267.162Z" fill="#263238"/>
<path d="M244.949 273.735C244.949 273.9 226.164 274.042 203.001 274.042C179.838 274.042 161.054 273.9 161.054 273.735C161.054 273.571 179.838 273.429 203.001 273.429C226.164 273.429 244.949 273.559 244.949 273.735Z" fill="#263238"/>
<path d="M204.682 280.734C204.682 280.898 195.006 281.04 183.104 281.04C171.201 281.04 161.537 280.898 161.537 280.734C161.537 280.569 171.214 280.427 183.104 280.427C194.993 280.427 204.682 280.569 204.682 280.734Z" fill="#263238"/>
<path d="M72.9606 471.451V460.848L52.4828 460.671L52.3135 476.258L53.523 476.341C59.1717 476.682 82.2621 477.684 86.0481 476.6C90.3299 475.375 72.9606 471.451 72.9606 471.451Z" fill="#5C5CFF"/>
<path d="M86.5914 475.622C86.5914 475.81 78.9349 475.964 69.4883 475.964C60.0416 475.964 52.373 475.81 52.373 475.622C52.373 475.433 60.0416 475.28 69.4883 475.28C78.9349 475.28 86.5914 475.433 86.5914 475.622Z" fill="#263238"/>
<path d="M73.3229 473.63C73.1536 473.536 73.3229 472.959 73.7342 472.452C74.1454 471.945 74.7139 471.615 74.8349 471.745C74.9558 471.875 74.6897 472.358 74.2906 472.923C73.8914 473.489 73.4922 473.724 73.3229 473.63Z" fill="#263238"/>
<path d="M74.6289 474.326C74.4475 474.255 74.5443 473.619 74.9434 472.959C75.3426 472.299 75.8748 471.899 76.0199 472.017C76.1651 472.134 75.9232 472.688 75.5482 473.301C75.1732 473.913 74.8104 474.396 74.6289 474.326Z" fill="#263238"/>
<path d="M58.5304 475.551C58.4457 475.61 58.1312 475.328 57.6837 474.856C57.1389 474.24 56.5355 473.676 55.8814 473.171C55.2292 472.705 54.469 472.401 53.6679 472.288C53.0511 472.205 52.6519 472.288 52.6156 472.194C52.5793 472.099 52.9664 471.852 53.68 471.805C54.6205 471.779 55.542 472.065 56.2927 472.618C57.0082 473.152 57.6152 473.811 58.0828 474.562C58.4578 475.115 58.6271 475.492 58.5304 475.551Z" fill="#263238"/>
<path d="M73.3828 471.628C73.4796 471.781 73.1167 472.158 72.5361 472.358C71.9555 472.559 71.4354 472.488 71.4112 472.299C71.387 472.111 71.7862 471.899 72.3063 471.722C72.8264 471.545 73.2739 471.463 73.3828 471.628Z" fill="#263238"/>
<path d="M73.0451 470.591C73.0451 470.78 72.5129 470.945 71.8355 470.956C71.1582 470.968 70.626 470.815 70.626 470.627C70.626 470.438 71.1824 470.285 71.8355 470.273C72.4887 470.261 73.0451 470.403 73.0451 470.591Z" fill="#5C5CFF"/>
<path d="M86.5914 475.622C86.5914 475.81 78.9349 475.964 69.4883 475.964C60.0416 475.964 52.373 475.81 52.373 475.622C52.373 475.433 60.0416 475.28 69.4883 475.28C78.9349 475.28 86.5914 475.433 86.5914 475.622Z" fill="#263238"/>
<path d="M73.3229 473.63C73.1536 473.536 73.3229 472.959 73.7342 472.452C74.1454 471.945 74.7139 471.615 74.8349 471.745C74.9558 471.875 74.6897 472.358 74.2906 472.923C73.8914 473.489 73.4922 473.724 73.3229 473.63Z" fill="#263238"/>
<path d="M74.6289 474.326C74.4475 474.255 74.5443 473.619 74.9434 472.959C75.3426 472.299 75.8748 471.899 76.0199 472.017C76.1651 472.134 75.9232 472.688 75.5482 473.301C75.1732 473.913 74.8104 474.396 74.6289 474.326Z" fill="#263238"/>
<path d="M58.5304 475.551C58.4457 475.61 58.1312 475.328 57.6837 474.856C57.1389 474.24 56.5355 473.676 55.8814 473.171C55.2292 472.705 54.469 472.401 53.6679 472.288C53.0511 472.205 52.6519 472.288 52.6156 472.194C52.5793 472.099 52.9664 471.852 53.68 471.805C54.6205 471.779 55.542 472.065 56.2927 472.618C57.0082 473.152 57.6152 473.811 58.0828 474.562C58.4578 475.115 58.6271 475.492 58.5304 475.551Z" fill="#263238"/>
<path d="M73.3828 471.628C73.4796 471.781 73.1167 472.158 72.5361 472.358C71.9555 472.559 71.4354 472.488 71.4112 472.299C71.387 472.111 71.7862 471.899 72.3063 471.722C72.8264 471.545 73.2739 471.463 73.3828 471.628Z" fill="#263238"/>
<path d="M73.0451 470.591C73.0451 470.78 72.5129 470.945 71.8355 470.956C71.1582 470.968 70.626 470.815 70.626 470.627C70.626 470.438 71.1824 470.285 71.8355 470.273C72.4887 470.261 73.0451 470.403 73.0451 470.591Z" fill="#263238"/>
<path d="M94.5636 467.681L97.7931 457.514L78.2709 451.482L73.4326 466.315L74.6422 466.762C79.9279 468.718 101.688 476.329 105.631 476.388C109.961 476.435 94.5636 467.681 94.5636 467.681Z" fill="#5C5CFF"/>
<path d="M106.319 475.586C106.319 475.775 98.8927 473.713 89.8694 470.98C80.8461 468.247 73.5766 465.902 73.6371 465.725C73.6976 465.549 81.0517 467.61 90.0871 470.332C99.1225 473.053 106.38 475.41 106.319 475.586Z" fill="#263238"/>
<path d="M94.2481 469.861C94.115 469.719 94.4295 469.224 95.0101 468.812C95.5907 468.4 96.2197 468.294 96.2801 468.459C96.3406 468.624 95.9535 469.001 95.4213 469.378C94.8891 469.755 94.3811 469.99 94.2481 469.861Z" fill="#263238"/>
<path d="M95.2752 470.909C95.13 470.791 95.4082 470.202 96.0009 469.731C96.5936 469.259 97.2105 468.988 97.3194 469.142C97.4282 469.295 97.0169 469.754 96.4726 470.237C95.9283 470.72 95.4324 470.979 95.2752 470.909Z" fill="#263238"/>
<path d="M79.5518 467.445C79.455 467.445 79.2494 467.127 78.9712 466.538C78.6389 465.795 78.2339 465.085 77.7616 464.417C77.2814 463.785 76.6504 463.275 75.9231 462.933C75.3546 462.685 74.9434 462.638 74.9434 462.544C74.9434 462.45 75.3788 462.308 76.0803 462.473C76.9825 462.723 77.7713 463.263 78.318 464.005C78.8359 464.718 79.217 465.516 79.4429 466.361C79.6001 466.997 79.6364 467.445 79.5518 467.445Z" fill="#455A64"/>
<path d="M94.9138 467.964C94.9138 468.14 94.5025 468.4 93.8857 468.423C93.2688 468.447 92.785 468.223 92.8213 468.034C92.8575 467.846 93.3172 467.763 93.8615 467.74C94.4058 467.716 94.817 467.775 94.9138 467.964Z" fill="#263238"/>
<path d="M94.9133 466.892C94.9133 467.068 94.3085 467.068 93.6432 466.892C92.978 466.715 92.5063 466.397 92.5667 466.22C92.6272 466.043 93.2078 466.055 93.8368 466.22C94.4658 466.385 94.9617 466.703 94.9133 466.892Z" fill="#263238"/>
<path d="M108.46 260.834L81.5838 258.82L40.8701 255.604L45.4181 468.623L80.7734 468.176C80.7734 468.176 80.7735 465.819 80.6888 461.649L101.421 467.174C101.421 467.174 121.62 400.703 128.503 373.429C134.248 350.703 108.46 260.834 108.46 260.834ZM80.3017 428.566C79.7695 379.391 79.1526 295.766 79.8905 285.54C79.8905 285.54 99.5821 359.162 99.7635 364.97C99.8845 368.481 88.9138 402.459 80.3017 428.566Z" fill="#455A64"/>
<path d="M80.9669 460.106C80.9669 460.294 73.0564 460.447 63.3074 460.447C53.5583 460.447 45.6357 460.294 45.6357 460.106C45.6357 459.917 53.5463 459.764 63.3074 459.764C73.0685 459.764 80.9669 459.917 80.9669 460.106Z" fill="#455A64"/>
<path d="M80.6523 452.448C81.7582 452.703 82.8421 453.042 83.894 453.461L91.9859 456.206L100.078 458.963C101.222 459.282 102.332 459.708 103.392 460.235C102.21 460.075 101.048 459.803 99.9206 459.422C97.816 458.822 94.9251 457.926 91.7561 456.854C88.5871 455.782 85.7083 454.722 83.7246 453.909C82.636 453.563 81.602 453.071 80.6523 452.448Z" fill="#455A64"/>
<path d="M113.046 364.311C110.859 364.807 108.626 365.084 106.381 365.136C104.155 365.413 101.905 365.464 99.668 365.289C101.853 364.784 104.087 364.503 106.333 364.452C108.559 364.176 110.809 364.128 113.046 364.311Z" fill="#455A64"/>
<path d="M110.734 368.176C108.996 368.033 107.284 367.668 105.642 367.092C103.934 366.728 102.283 366.146 100.731 365.36C102.475 365.489 104.193 365.849 105.836 366.432C108.594 367.21 110.795 367.987 110.734 368.176Z" fill="#455A64"/>
<path d="M83.1442 259.092C83.3067 260.437 83.3673 261.791 83.3256 263.145C83.3256 265.654 83.3256 269.118 83.3256 272.947C83.3256 274.844 83.3256 276.658 83.253 278.331C83.2973 279.838 83.0086 281.336 82.4063 282.725C81.9773 283.672 81.2915 284.486 80.4227 285.082C80.1264 285.321 79.7727 285.483 79.3945 285.553C79.3945 285.553 79.7332 285.341 80.2775 284.893C81.0413 284.256 81.6348 283.447 82.0072 282.537C82.5115 281.187 82.7376 279.754 82.6724 278.319C82.6724 276.634 82.6724 274.785 82.6724 272.923C82.6724 269.094 82.7692 265.63 82.8418 263.133C82.8379 261.78 82.939 260.429 83.1442 259.092Z" fill="#455A64"/>
<path d="M62.9095 257.89C62.9226 258.062 62.9226 258.235 62.9095 258.408C62.9095 258.785 62.9095 259.292 62.9095 259.94C62.9095 261.306 62.8007 263.286 62.716 265.83C62.5467 270.955 62.3047 278.319 62.0024 287.402C61.4339 305.616 60.8533 330.793 60.7081 358.585C60.563 386.378 60.8896 411.602 61.2645 429.804C61.4702 438.887 61.6274 446.298 61.7484 451.376C61.7484 453.909 61.8451 455.876 61.8814 457.266C61.8814 457.914 61.8814 458.445 61.8814 458.798C61.8944 458.971 61.8944 459.144 61.8814 459.316C61.8684 459.144 61.8684 458.971 61.8814 458.798C61.8814 458.433 61.8814 457.926 61.7967 457.278C61.7967 455.9 61.6637 453.932 61.5548 451.388C61.3492 446.298 61.1073 438.923 60.8654 429.816C60.3695 411.59 59.9824 386.413 60.1275 358.585C60.2727 330.758 60.9259 305.569 61.6032 287.39C61.9419 278.283 62.2564 270.896 62.5225 265.819C62.6555 263.297 62.7644 261.33 62.8369 259.928C62.8369 259.28 62.9095 258.75 62.9337 258.396C62.9132 258.228 62.9051 258.059 62.9095 257.89Z" fill="#455A64"/>
<path d="M99.6548 263.25C99.7282 263.406 99.7889 263.568 99.8362 263.733C99.9451 264.086 100.102 264.558 100.296 265.17C100.683 266.431 101.3 268.292 101.977 270.719C103.368 275.562 105.243 282.595 107.336 291.349C109.428 300.102 111.75 310.541 114.17 322.181C116.589 333.821 119.141 346.639 121.427 360.164C121.717 361.86 121.983 363.545 122.213 365.23C122.213 365.678 122.298 366.137 122.298 366.573L122.08 367.822C121.923 368.658 121.802 369.495 121.608 370.308C120.919 373.583 120.145 376.787 119.31 379.921C117.665 386.189 115.923 392.186 114.206 397.888C110.795 409.292 107.505 419.495 104.711 428.06C101.917 436.625 99.5822 443.517 97.9372 448.277L96.0261 453.755L95.506 455.181C95.4609 455.345 95.3959 455.503 95.3125 455.652C95.3441 455.484 95.3886 455.319 95.4456 455.157C95.5665 454.804 95.7116 454.333 95.9052 453.72L97.7074 448.206L104.287 427.931C107.021 419.354 110.263 409.139 113.649 397.735C115.343 392.033 117.072 386.024 118.717 379.768C119.54 376.646 120.314 373.453 121.004 370.19C121.197 369.377 121.306 368.552 121.451 367.728L121.669 366.491C121.669 366.09 121.608 365.701 121.584 365.312C121.354 363.651 121.1 361.966 120.81 360.282C118.512 346.768 115.972 333.95 113.553 322.31C111.134 310.67 108.944 300.149 106.912 291.443C104.88 282.736 103.054 275.632 101.735 270.778C101.106 268.351 100.526 266.478 100.175 265.206L99.7758 263.757C99.7164 263.593 99.6758 263.423 99.6548 263.25Z" fill="#455A64"/>
<path d="M80.1937 424.243C80.291 424.791 80.3275 425.348 80.3025 425.904C80.3025 427.082 80.3025 428.626 80.363 430.452C80.363 434.399 80.5081 439.641 80.5928 445.426C80.6775 451.211 80.9073 456.454 81.0161 460.4C81.0161 462.226 81.1129 463.758 81.1492 464.948C81.2039 465.5 81.2039 466.057 81.1492 466.609C81.0157 466.069 80.9428 465.516 80.9315 464.96C80.8347 463.888 80.7259 462.344 80.6049 460.424C80.363 456.595 80.1332 451.293 80.0001 445.438C79.8671 439.583 79.8913 434.281 80.0001 430.452C80.0001 428.532 80.0848 426.918 80.1332 425.904C80.1087 425.35 80.1289 424.794 80.1937 424.243Z" fill="#455A64"/>
<path d="M108.46 260.834L81.5838 258.82L40.8701 255.604L45.4181 468.623L80.7734 468.176C80.7734 468.176 80.7735 465.819 80.6888 461.649L101.421 467.174C101.421 467.174 121.62 400.703 128.503 373.429C134.248 350.703 108.46 260.834 108.46 260.834ZM80.3017 428.566C79.7695 379.391 79.1526 295.766 79.8905 285.54C79.8905 285.54 99.5821 359.162 99.7635 364.97C99.8845 368.481 88.9138 402.459 80.3017 428.566Z" fill="#263238"/>
<path d="M80.9669 460.106C80.9669 460.294 73.0564 460.447 63.3074 460.447C53.5583 460.447 45.6357 460.294 45.6357 460.106C45.6357 459.917 53.5463 459.764 63.3074 459.764C73.0685 459.764 80.9669 459.917 80.9669 460.106Z" fill="#455A64"/>
<path d="M80.6523 452.448C81.7582 452.703 82.8421 453.042 83.894 453.461L91.9859 456.206L100.078 458.963C101.222 459.282 102.332 459.708 103.392 460.235C102.21 460.075 101.048 459.803 99.9206 459.422C97.816 458.822 94.9251 457.926 91.7561 456.854C88.5871 455.782 85.7083 454.722 83.7246 453.909C82.636 453.563 81.602 453.071 80.6523 452.448Z" fill="#455A64"/>
<path d="M113.046 364.311C110.859 364.807 108.626 365.084 106.381 365.136C104.155 365.413 101.905 365.464 99.668 365.289C101.853 364.784 104.087 364.503 106.333 364.452C108.559 364.176 110.809 364.128 113.046 364.311Z" fill="#455A64"/>
<path d="M110.734 368.176C108.996 368.033 107.284 367.668 105.642 367.092C103.934 366.728 102.283 366.146 100.731 365.36C102.475 365.489 104.193 365.849 105.836 366.432C108.594 367.21 110.795 367.987 110.734 368.176Z" fill="#455A64"/>
<path d="M83.1442 259.092C83.3067 260.437 83.3673 261.791 83.3256 263.145C83.3256 265.654 83.3256 269.118 83.3256 272.947C83.3256 274.844 83.3256 276.658 83.253 278.331C83.2973 279.838 83.0086 281.336 82.4063 282.725C81.9773 283.672 81.2915 284.486 80.4227 285.082C80.1264 285.321 79.7727 285.483 79.3945 285.553C79.3945 285.553 79.7332 285.341 80.2775 284.893C81.0413 284.256 81.6348 283.447 82.0072 282.537C82.5115 281.187 82.7376 279.754 82.6724 278.319C82.6724 276.634 82.6724 274.785 82.6724 272.923C82.6724 269.094 82.7692 265.63 82.8418 263.133C82.8379 261.78 82.939 260.429 83.1442 259.092Z" fill="#455A64"/>
<path d="M62.9095 257.89C62.9226 258.062 62.9226 258.235 62.9095 258.408C62.9095 258.785 62.9095 259.292 62.9095 259.94C62.9095 261.306 62.8007 263.286 62.716 265.83C62.5467 270.955 62.3047 278.319 62.0024 287.402C61.4339 305.616 60.8533 330.793 60.7081 358.585C60.563 386.378 60.8896 411.602 61.2645 429.804C61.4702 438.887 61.6274 446.298 61.7484 451.376C61.7484 453.909 61.8451 455.876 61.8814 457.266C61.8814 457.914 61.8814 458.445 61.8814 458.798C61.8944 458.971 61.8944 459.144 61.8814 459.316C61.8684 459.144 61.8684 458.971 61.8814 458.798C61.8814 458.433 61.8814 457.926 61.7967 457.278C61.7967 455.9 61.6637 453.932 61.5548 451.388C61.3492 446.298 61.1073 438.923 60.8654 429.816C60.3695 411.59 59.9824 386.413 60.1275 358.585C60.2727 330.758 60.9259 305.569 61.6032 287.39C61.9419 278.283 62.2564 270.896 62.5225 265.819C62.6555 263.297 62.7644 261.33 62.8369 259.928C62.8369 259.28 62.9095 258.75 62.9337 258.396C62.9132 258.228 62.9051 258.059 62.9095 257.89Z" fill="#455A64"/>
<path d="M99.6548 263.25C99.7282 263.406 99.7889 263.568 99.8362 263.733C99.9451 264.086 100.102 264.558 100.296 265.17C100.683 266.431 101.3 268.292 101.977 270.719C103.368 275.562 105.243 282.595 107.336 291.349C109.428 300.102 111.75 310.541 114.17 322.181C116.589 333.821 119.141 346.639 121.427 360.164C121.717 361.86 121.983 363.545 122.213 365.23C122.213 365.678 122.298 366.137 122.298 366.573L122.08 367.822C121.923 368.658 121.802 369.495 121.608 370.308C120.919 373.583 120.145 376.787 119.31 379.921C117.665 386.189 115.923 392.186 114.206 397.888C110.795 409.292 107.505 419.495 104.711 428.06C101.917 436.625 99.5822 443.517 97.9372 448.277L96.0261 453.755L95.506 455.181C95.4609 455.345 95.3959 455.503 95.3125 455.652C95.3441 455.484 95.3886 455.319 95.4456 455.157C95.5665 454.804 95.7116 454.333 95.9052 453.72L97.7074 448.206L104.287 427.931C107.021 419.354 110.263 409.139 113.649 397.735C115.343 392.033 117.072 386.024 118.717 379.768C119.54 376.646 120.314 373.453 121.004 370.19C121.197 369.377 121.306 368.552 121.451 367.728L121.669 366.491C121.669 366.09 121.608 365.701 121.584 365.312C121.354 363.651 121.1 361.966 120.81 360.282C118.512 346.768 115.972 333.95 113.553 322.31C111.134 310.67 108.944 300.149 106.912 291.443C104.88 282.736 103.054 275.632 101.735 270.778C101.106 268.351 100.526 266.478 100.175 265.206L99.7758 263.757C99.7164 263.593 99.6758 263.423 99.6548 263.25Z" fill="#455A64"/>
<path d="M80.1937 424.243C80.291 424.791 80.3275 425.348 80.3025 425.904C80.3025 427.082 80.3025 428.626 80.363 430.452C80.363 434.399 80.5081 439.641 80.5928 445.426C80.6775 451.211 80.9073 456.454 81.0161 460.4C81.0161 462.226 81.1129 463.758 81.1492 464.948C81.2039 465.5 81.2039 466.057 81.1492 466.609C81.0157 466.069 80.9428 465.516 80.9315 464.96C80.8347 463.888 80.7259 462.344 80.6049 460.424C80.363 456.595 80.1332 451.293 80.0001 445.438C79.8671 439.583 79.8913 434.281 80.0001 430.452C80.0001 428.532 80.0848 426.918 80.1332 425.904C80.1087 425.35 80.1289 424.794 80.1937 424.243Z" fill="#455A64"/>
<path d="M62.1583 158.596L82.7208 160.08C82.999 157.724 83.3982 148.758 83.3982 148.758C83.3982 148.758 91.9739 147.992 92.6029 139.722C93.2319 131.451 92.9658 112.354 92.9658 112.354C88.2647 110.039 83.0141 108.991 77.7572 109.316C72.5004 109.641 67.4282 111.328 63.0655 114.203L61.7471 115.075L62.1583 158.596Z" fill="#E5BAAB"/>
<path d="M90.0387 126.456C89.8757 126.289 89.7667 126.079 89.725 125.853C89.6833 125.626 89.7108 125.392 89.8041 125.18C89.8975 124.968 90.0525 124.788 90.2501 124.661C90.4476 124.534 90.679 124.467 90.9156 124.467C91.1522 124.467 91.3836 124.534 91.5811 124.661C91.7787 124.788 91.9337 124.968 92.0271 125.18C92.1204 125.392 92.1479 125.626 92.1062 125.853C92.0646 126.079 91.9555 126.289 91.7925 126.456C91.6795 126.572 91.5435 126.664 91.3928 126.728C91.242 126.791 91.0797 126.823 90.9156 126.823C90.7515 126.823 90.5892 126.791 90.4385 126.728C90.2877 126.664 90.1517 126.572 90.0387 126.456Z" fill="#263238"/>
<path d="M92.2158 124.689C92.0706 124.83 91.2844 124.159 90.1111 124.076C88.9378 123.994 88.0549 124.536 87.9339 124.382C87.813 124.229 88.0186 124.064 88.4177 123.817C88.9324 123.488 89.5464 123.338 90.1595 123.393C90.7773 123.429 91.3649 123.665 91.8287 124.064C92.1795 124.359 92.2883 124.606 92.2158 124.689Z" fill="#263238"/>
<path d="M78.6691 124.877C78.8606 125.013 79.0068 125.202 79.0894 125.418C79.1721 125.635 79.1875 125.87 79.1338 126.095C79.0801 126.32 78.9597 126.525 78.7875 126.684C78.6153 126.843 78.399 126.949 78.1654 126.989C77.9318 127.029 77.6912 127.001 77.4737 126.909C77.2561 126.817 77.0712 126.665 76.9418 126.471C76.8124 126.277 76.7444 126.051 76.7461 125.82C76.7479 125.589 76.8193 125.363 76.9515 125.172C77.0423 125.04 77.1595 124.928 77.296 124.841C77.4325 124.755 77.5855 124.696 77.7459 124.668C77.9063 124.641 78.0708 124.645 78.2294 124.681C78.388 124.717 78.5376 124.784 78.6691 124.877Z" fill="#263238"/>
<path d="M79.4434 124.936C79.2982 125.066 78.512 124.394 77.3387 124.312C76.1655 124.229 75.2825 124.783 75.1615 124.63C75.0406 124.477 75.2462 124.3 75.6333 124.053C76.1576 123.735 76.7713 123.587 77.3871 123.628C78.0031 123.672 78.5883 123.908 79.0563 124.3C79.4071 124.606 79.5159 124.877 79.4434 124.936Z" fill="#263238"/>
<path d="M83.5439 134.621C84.1626 134.434 84.8074 134.343 85.455 134.35C85.7695 134.35 86.0235 134.291 86.0597 134.126C86.0903 133.822 86.0316 133.515 85.8904 133.242L85.1163 130.886C84.3715 128.871 83.8247 126.793 83.4834 124.677C84.4207 126.612 85.1698 128.627 85.7211 130.698L86.4468 133.054C86.6214 133.444 86.6556 133.88 86.5436 134.291C86.4927 134.401 86.4158 134.498 86.3191 134.574C86.2224 134.65 86.1087 134.702 85.9872 134.727C85.8145 134.749 85.6397 134.749 85.4671 134.727C84.8243 134.792 84.175 134.756 83.5439 134.621Z" fill="#263238"/>
<path d="M79.6605 135.646C78.451 134.868 82.9021 137.59 85.2971 137.625C84.8621 138.199 84.2396 138.612 83.5319 138.796C82.8242 138.981 82.0732 138.925 81.4023 138.638C78.9106 137.566 79.6605 135.646 79.6605 135.646Z" fill="white"/>
<path d="M83.3499 148.641C79.4224 148.479 75.633 147.183 72.4639 144.918C72.4639 144.918 74.7015 151.033 83.2289 150.809L83.3499 148.641Z" fill="#D78776"/>
<path d="M63.3678 122.415C63.1743 122.344 57.0539 121.567 57.6345 128.612C58.2151 135.657 65.3273 132.747 65.3152 132.547C65.3031 132.347 63.3678 122.415 63.3678 122.415Z" fill="#E5BAAB"/>
<path d="M62.8358 130.25C62.8358 130.25 62.727 130.344 62.5214 130.462C62.2301 130.607 61.8934 130.641 61.5779 130.556C61.0882 130.302 60.676 129.926 60.3829 129.467C60.0899 129.007 59.9263 128.481 59.9087 127.941C59.842 127.339 59.9165 126.731 60.1264 126.162C60.1748 125.936 60.2781 125.726 60.4276 125.547C60.577 125.369 60.7683 125.228 60.9852 125.137C61.1281 125.092 61.2823 125.095 61.4228 125.147C61.5634 125.198 61.682 125.294 61.7593 125.419C61.8682 125.608 61.844 125.749 61.8803 125.761C61.9166 125.773 62.0254 125.631 61.8803 125.349C61.8298 125.176 61.7185 125.026 61.5658 124.925C61.3512 124.8 61.0968 124.758 60.8522 124.807C60.5641 124.886 60.3017 125.036 60.0899 125.242C59.8782 125.449 59.7242 125.704 59.6426 125.985C59.3817 126.616 59.2861 127.3 59.3644 127.976C59.3778 128.605 59.5827 129.217 59.953 129.733C60.3234 130.249 60.8426 130.646 61.4449 130.874C61.6431 130.915 61.8482 130.911 62.0449 130.865C62.2417 130.818 62.4252 130.728 62.5818 130.603C62.8358 130.427 62.8721 130.262 62.8358 130.25Z" fill="#D78776"/>
<path d="M93.5106 109.373C94.0001 109.36 94.4801 109.238 94.9134 109.016C95.3467 108.793 95.7217 108.477 96.0094 108.091C96.2971 107.705 96.4897 107.259 96.5725 106.789C96.6553 106.319 96.6259 105.837 96.4867 105.379C96.3475 104.922 96.1021 104.502 95.7696 104.152C95.4371 103.802 95.0263 103.531 94.5691 103.36C94.1119 103.189 93.6204 103.123 93.1328 103.166C92.6451 103.21 92.1743 103.363 91.7567 103.612C92.7682 102.794 93.5923 101.778 94.1758 100.631C94.458 100.052 94.5513 99.4033 94.4432 98.7714C94.3351 98.1394 94.0307 97.5549 93.571 97.0966C93.0388 96.7536 92.423 96.5533 91.7859 96.5161C91.1488 96.4789 90.5129 96.606 89.9424 96.8846C88.1401 97.6386 86.7128 99.123 84.8622 99.7475C83.0116 100.372 80.9432 100.066 78.9596 100.148C76.7337 100.187 74.5779 100.913 72.8029 102.222C71.2904 103.379 70.3116 105.074 70.0814 106.934C69.8437 106.616 69.5808 106.317 69.2952 106.039C68.3545 104.945 67.0854 104.166 65.6665 103.812C65.5819 103.965 67.2389 104.861 68.8235 106.463C69.2548 106.865 69.6589 107.294 70.033 107.747C67.2752 107.417 64.2392 107.394 62.062 109.067C61.18 109.832 60.4829 110.779 60.0207 111.838C59.5586 112.897 59.3428 114.043 59.3889 115.193C59.3889 117.478 60.3566 119.658 61.046 121.849C61.2127 122.47 61.5002 123.054 61.8927 123.569L62.9329 129.46L66.7188 129.39L66.4769 117.031C66.4769 117.031 66.0899 111.823 70.6862 112.318C75.2825 112.813 81.5722 117.82 90.4987 116.548C91.9634 116.468 93.3904 116.065 94.6717 115.37C95.2919 114.987 95.796 114.45 96.132 113.814C96.468 113.178 96.6236 112.467 96.5828 111.753C96.4948 111.042 96.123 110.394 95.548 109.949C94.973 109.503 94.241 109.296 93.5106 109.373Z" fill="#263238"/>
<path d="M170.438 170.365L170.995 166.619C171.563 164.569 171.92 162.47 172.059 160.351C172.15 159.298 172.052 158.237 171.769 157.217C171.483 155.933 171.011 154.695 170.366 153.541C169.664 152.54 170.583 151.185 171.575 151.598C172.567 152.01 174.635 154.672 175.301 158.513C175.966 162.354 179.074 157.029 180.236 155.108C181.397 153.188 185.304 147.403 186.199 147.286C187.505 147.109 187.941 148.464 186.719 150.337C185.497 152.21 182.28 158.16 183.356 158.702C184.162 158.576 184.986 158.616 185.775 158.82C185.903 158.856 186.015 158.93 186.098 159.031C186.18 159.132 186.228 159.256 186.235 159.385C186.231 159.979 186.295 160.572 186.429 161.152C186.429 161.152 188.013 160.799 188.34 161.47C188.561 162.16 188.663 162.881 188.642 163.603C188.642 163.603 189.852 163.202 190.432 163.603C191.642 164.557 190.094 166.195 190.094 166.195C186.532 170.333 182.706 174.248 178.639 177.917L170.305 170.094" fill="#E5BAAB"/>
<path d="M185.945 161.412C185.589 162.14 185.111 162.805 184.53 163.379C184.046 163.945 183.441 164.557 182.728 165.3C182.355 165.685 181.951 166.04 181.518 166.36C181.251 166.566 180.93 166.694 180.591 166.727C180.252 166.761 179.911 166.698 179.607 166.548C179.441 166.454 179.301 166.322 179.198 166.164C179.095 166.007 179.032 165.827 179.014 165.641C178.99 165.309 179.065 164.978 179.232 164.687C179.53 164.249 179.853 163.829 180.2 163.426C180.816 162.672 181.324 161.965 181.748 161.353C182.154 160.66 182.619 160.002 183.139 159.385C182.937 160.169 182.593 160.911 182.123 161.577C181.683 162.334 181.199 163.066 180.671 163.768C180.35 164.144 180.051 164.537 179.776 164.946C179.559 165.335 179.571 165.818 179.921 165.995C180.119 166.076 180.335 166.104 180.547 166.077C180.76 166.05 180.961 165.969 181.131 165.841C181.532 165.545 181.912 165.223 182.268 164.875C182.994 164.216 183.623 163.591 184.143 163.061C184.685 162.453 185.288 161.9 185.945 161.412Z" fill="#D78776"/>
<path d="M188.06 163.827C187.705 164.455 187.247 165.024 186.706 165.511C186.159 166.082 185.565 166.606 184.928 167.078C184.545 167.36 184.141 167.612 183.718 167.832C183.467 167.955 183.198 168.039 182.92 168.08C182.752 168.106 182.58 168.098 182.415 168.056C182.25 168.013 182.097 167.937 181.964 167.832C181.741 167.607 181.6 167.317 181.563 167.006C181.525 166.695 181.594 166.381 181.759 166.112C182.004 165.692 182.291 165.298 182.617 164.934C183.15 164.333 183.646 163.756 184.141 163.179C185.024 162.189 185.605 161.612 185.678 161.659C185.358 162.306 184.952 162.908 184.468 163.45L183.113 165.323C182.828 165.656 182.569 166.011 182.339 166.383C182.246 166.534 182.203 166.708 182.216 166.883C182.229 167.059 182.297 167.226 182.412 167.361C182.629 167.561 183.089 167.479 183.488 167.29C183.885 167.09 184.269 166.866 184.637 166.619C185.266 166.182 185.868 165.71 186.44 165.205C186.92 164.683 187.465 164.22 188.06 163.827Z" fill="#D78776"/>
<path d="M188.557 167.196C188.617 167.196 188.557 167.726 187.988 168.374C187.816 168.575 187.604 168.74 187.365 168.859C187.126 168.979 186.865 169.05 186.597 169.069C186.251 169.072 185.914 168.96 185.642 168.751C185.492 168.629 185.372 168.476 185.29 168.302C185.208 168.129 185.167 167.94 185.17 167.75C185.266 167.149 185.515 166.582 185.896 166.101C186.151 165.712 186.43 165.338 186.73 164.981C187.25 164.369 187.625 164.051 187.698 164.109C187.771 164.168 187.504 164.569 187.093 165.288C186.851 165.7 186.609 166.077 186.392 166.466C186.1 166.881 185.899 167.35 185.799 167.844C185.808 168.044 185.897 168.233 186.045 168.371C186.194 168.51 186.392 168.587 186.597 168.586C186.999 168.574 187.382 168.419 187.674 168.151C188.218 167.585 188.472 167.149 188.557 167.196Z" fill="#D78776"/>
<path d="M169.531 165.5C169.531 165.5 137.804 195.908 133.353 196.132C128.273 196.367 112.645 174.784 112.645 174.784C102.642 159.751 89.4459 157.324 84.6319 156.947V155.085L60.985 153.2C60.985 153.2 60.985 155.179 60.985 156.911H50.5465C50.5465 156.911 31.7984 156.075 28.9922 180.604L42.4667 190.983L47.9944 211.012C49.9175 217.986 43.0473 229.096 39.7693 247.086C39.2638 250.085 39.7777 253.163 41.2329 255.852L109.512 263.498L105.884 212.649L104.783 200.868C110.408 208.349 120.507 218.929 132.881 218.693C153.988 218.304 183.308 175.102 183.308 175.102L169.531 165.5Z" fill="#E0E0E0"/>
<path d="M76.6722 154.755C76.7895 155.8 76.7895 156.855 76.6722 157.901C76.4958 160.518 76.1321 163.12 75.5836 165.688L75.4989 166.077L75.1361 165.888C74.3136 165.464 73.4548 165.017 72.5839 164.522C69.1971 162.578 66.3063 160.575 64.117 159.185C62.9351 158.484 61.7962 157.717 60.7061 156.887C61.0681 156.99 61.414 157.141 61.7342 157.335C62.3631 157.677 63.2703 158.171 64.3589 158.819C66.5603 160.115 69.4875 162.071 72.8258 163.992C73.6725 164.475 74.5192 164.934 75.3417 165.358L74.8942 165.558C75.5957 162.519 75.9344 159.797 76.1884 157.865C76.2849 156.82 76.4464 155.781 76.6722 154.755Z" fill="#FAFAFA"/>
<path d="M84.7051 157.076C84.5531 158.088 84.3268 159.088 84.0277 160.068C83.7979 160.999 83.556 162.106 83.1448 163.308C82.9307 163.943 82.6762 164.565 82.3827 165.17C82.2981 165.386 82.1458 165.572 81.9473 165.7C81.8095 165.782 81.6472 165.816 81.4868 165.797C81.3264 165.778 81.1774 165.706 81.0643 165.594C80.8377 165.268 80.6547 164.916 80.52 164.545C79.3104 161.871 78.3549 159.444 77.6533 157.665C77.2121 156.733 76.8755 155.757 76.6494 154.755C77.2144 155.621 77.6885 156.541 78.0646 157.5C78.875 159.232 79.9515 161.635 81.1006 164.31C81.2122 164.607 81.3498 164.895 81.5118 165.17C81.5723 165.17 81.5118 165.17 81.6207 165.17C81.7118 165.098 81.7825 165.005 81.8263 164.899C82.1157 164.319 82.3741 163.725 82.6004 163.12C83.0238 161.942 83.3141 160.858 83.5923 159.95C83.8328 158.949 84.2069 157.983 84.7051 157.076Z" fill="#FAFAFA"/>
<path d="M80.3023 239.358C80.2445 239.082 80.2121 238.802 80.2055 238.521C80.2055 237.909 80.1572 237.123 80.0604 236.165C79.9636 233.997 79.8185 230.993 79.6492 227.305C79.3589 219.765 78.9476 209.456 78.5122 198.076C78.0767 186.695 77.7985 176.386 77.5566 168.846C77.4719 165.147 77.3994 162.142 77.3389 159.975C77.3389 158.985 77.3389 158.184 77.3389 157.618C77.3076 157.336 77.3076 157.052 77.3389 156.77C77.3946 157.046 77.423 157.326 77.4236 157.606C77.4236 158.219 77.5203 159.02 77.5808 159.963C77.6776 162.119 77.8227 165.123 77.992 168.811C78.2823 176.351 78.6815 186.659 79.129 198.04C79.5766 209.421 79.8306 219.73 80.0846 227.282C80.1693 230.969 80.2418 233.974 80.3023 236.141C80.3023 237.143 80.3023 237.944 80.3023 238.557C80.3308 238.823 80.3308 239.091 80.3023 239.358Z" fill="#F5F5F5"/>
<path d="M75.9961 162.2L77.9798 167.526L79.6853 161.812L77.0363 156.086L75.9961 162.2Z" fill="#5C5CFF"/>
<path d="M78.3415 165.936L77.0352 225.879L86.3246 244.8L89.9895 223.511L78.3415 165.936Z" fill="#5C5CFF"/>
<path d="M133.692 203.542C133.692 203.542 133.692 203.719 133.692 204.013L133.619 204.461L133.414 204.013C132.946 202.822 132.676 201.565 132.616 200.29C132.415 198.869 132.59 197.422 133.124 196.084C133.305 196.084 133.124 197.97 133.245 200.255C133.341 201.881 133.607 203.271 133.692 203.943H133.414C133.523 203.625 133.644 203.542 133.692 203.542Z" fill="#FAFAFA"/>
<path d="M136.413 203.342C135.511 202.42 134.84 201.307 134.454 200.09C133.872 198.967 133.554 197.731 133.522 196.473C134.138 197.569 134.641 198.721 135.022 199.913C135.599 201.009 136.065 202.158 136.413 203.342Z" fill="#FAFAFA"/>
<path d="M181.325 177.964C178.709 176.616 176.195 175.089 173.801 173.393C171.293 171.869 168.901 170.172 166.641 168.315C169.255 169.674 171.769 171.209 174.164 172.91C176.671 174.427 179.064 176.116 181.325 177.964Z" fill="#FAFAFA"/>
<path d="M49.4462 187.59C49.4462 187.59 44.4145 221.756 46.7973 223.664C59.9573 234.444 78.2458 240.1 84.7774 241.879C85.733 241.655 86.8458 241.36 88.1279 240.96C89.2393 240.616 90.2824 240.09 91.2123 239.404C92.3997 238.593 93.4661 237.626 94.3813 236.53C94.5195 236.295 94.7293 236.107 94.9817 235.993C95.234 235.879 95.5165 235.844 95.7901 235.893C96.0636 235.943 96.3148 236.073 96.5088 236.268C96.7028 236.462 96.83 236.71 96.873 236.977C96.9335 238.156 94.9982 241.183 91.3574 243.398C91.3574 243.398 99.7397 256.535 102.413 257.725C105.086 258.914 112.73 262.26 111.436 262.897C110.142 263.533 100.84 260.906 100.84 260.906L81.9713 255.993C81.9713 255.993 19.558 246.462 23.7068 218.575C26.259 201.48 29.041 186.082 30.0449 182.182L49.4462 187.59Z" fill="#E5BAAB"/>
<path d="M28.9924 180.592L23.4527 217.833C22.1584 229.296 30.0448 238.403 40.6526 243.528C56.8002 251.316 80.7736 256.876 80.568 256.841C80.3624 256.806 82.1888 240.218 82.1888 240.218C82.1888 240.218 48.5752 226.08 47.5229 219.953C46.4706 213.827 51.7926 188.379 51.7926 188.379L28.9924 180.592Z" fill="#E0E0E0"/>
<path d="M80.5196 256.841C80.507 256.743 80.507 256.644 80.5196 256.546C80.5196 256.311 80.5196 256.028 80.5801 255.686C80.6406 254.873 80.7253 253.778 80.8462 252.376C81.1002 249.454 81.4752 245.307 81.9227 240.205L82.0558 240.417L65.122 232.441L60.2837 230.085C58.6508 229.237 57.0058 228.306 55.3729 227.281C53.7162 226.24 52.1248 225.103 50.6073 223.876C49.8452 223.252 49.0832 222.592 48.3575 221.897C47.9483 221.547 47.6187 221.118 47.3898 220.636C47.2616 220.403 47.1679 220.153 47.1116 219.894C47.0322 219.648 46.9756 219.396 46.9423 219.14C46.398 215.064 47.5108 211.223 48.1519 207.559C48.7929 203.895 49.434 200.325 50.0388 196.956C51.2483 190.193 52.349 184.114 53.2683 178.977C53.7647 176.702 54.048 174.387 54.115 172.062C54.1383 170.312 53.7667 168.578 53.0264 166.984C52.5515 165.978 51.8774 165.073 51.0427 164.321C50.4621 163.815 50.1114 163.614 50.1235 163.579C50.4833 163.756 50.8203 163.973 51.1274 164.227C52.0155 164.957 52.7366 165.86 53.2441 166.878C54.038 168.497 54.4512 170.268 54.4537 172.062C54.4267 174.409 54.1715 176.748 53.6916 179.048C52.8087 184.197 51.7564 190.288 50.5952 197.062C50.0025 200.443 49.3856 204.001 48.7446 207.665C48.5873 208.584 48.418 209.515 48.2486 210.457C48.0793 211.4 47.8979 212.319 47.7648 213.261C47.4468 215.166 47.3939 217.104 47.6076 219.022C47.6459 219.257 47.6984 219.489 47.7648 219.718C47.8124 219.944 47.8939 220.162 48.0067 220.366C48.206 220.782 48.4947 221.151 48.8534 221.449C49.5671 222.133 50.3049 222.781 51.0548 223.393C52.5521 224.608 54.1234 225.733 55.76 226.763C57.3687 227.788 58.9895 228.707 60.5982 229.555L65.4365 231.911L82.2372 240.064L82.3703 240.135V240.276C81.826 245.377 81.3905 249.513 81.0881 252.435C80.9188 253.825 80.7979 254.932 80.7011 255.733C80.6527 256.079 80.6164 256.362 80.5922 256.582C80.5767 256.67 80.5524 256.757 80.5196 256.841Z" fill="#FAFAFA"/>
<path d="M77.3989 237.943C77.4347 238.797 77.3657 239.651 77.1932 240.488C76.9876 242.043 76.6489 244.188 76.2014 246.544C75.7539 248.9 75.2458 251.021 74.8346 252.541C74.6686 253.378 74.3879 254.191 74 254.956C74.0422 254.104 74.176 253.259 74.3992 252.434C74.754 250.659 75.1571 248.657 75.6087 246.426C76.032 243.566 76.6298 240.734 77.3989 237.943Z" fill="#FAFAFA"/>
<path d="M80.5193 256.841C80.3179 256.84 80.1179 256.809 79.9267 256.747L78.2696 256.358L72.2218 254.803C67.1054 253.46 59.9931 251.693 52.3729 248.971C48.787 247.694 45.2952 246.179 41.9223 244.436C39.1668 243.008 36.5372 241.361 34.0602 239.511C32.3889 238.265 30.8124 236.902 29.3429 235.435C28.8228 234.916 28.4479 234.504 28.1334 234.256C27.9894 234.118 27.8671 233.959 27.7705 233.785C27.7705 233.785 28.3753 234.339 29.4639 235.317C30.9974 236.707 32.6129 238.009 34.3021 239.216C36.8034 240.969 39.4309 242.544 42.1643 243.929C45.5287 245.632 49.0035 247.119 52.5665 248.382C60.1383 251.092 67.2384 252.918 72.3185 254.379L78.3663 256.111L79.9992 256.618C80.1818 256.67 80.3566 256.745 80.5193 256.841Z" fill="#FAFAFA"/>
<path d="M80.9315 241.926C80.9387 242.137 80.8813 242.344 80.7667 242.523C80.6521 242.702 80.4854 242.843 80.2879 242.929C80.0905 243.015 79.8712 243.042 79.6581 243.006C79.4449 242.97 79.2476 242.873 79.0912 242.728C78.9349 242.582 78.8266 242.394 78.7802 242.189C78.7338 241.983 78.7514 241.768 78.8308 241.572C78.9101 241.376 79.0476 241.208 79.2257 241.088C79.4039 240.969 79.6145 240.903 79.8308 240.901C80.1154 240.898 80.39 241.003 80.5957 241.195C80.8015 241.386 80.922 241.649 80.9315 241.926Z" fill="#FAFAFA"/>
</svg>
