<svg width="594" height="558" viewBox="0 0 594 558" fill="none" xmlns="http://www.w3.org/2000/svg">
<g filter="url(#filter0_di_763_5449)">
<g clip-path="url(#clip0_763_5449)">
<rect x="16" y="16" width="554" height="518" rx="20" fill="#F0F0FF"/>
<g opacity="0.3">
<path d="M620.457 456.353H-24.5322V456.675H620.457V456.353Z" fill="#E6E6E6"/>
<path d="M150.351 470.014H105.976V470.336H150.351V470.014Z" fill="#E6E6E6"/>
<path d="M96.5189 470.169H71.5449V470.491H96.5189V470.169Z" fill="#E6E6E6"/>
<path d="M251.832 469.421H201.213V469.743H251.832V469.421Z" fill="#E6E6E6"/>
<path d="M381.244 464.828H231.891V465.15H381.244V464.828Z" fill="#E6E6E6"/>
<path d="M509.093 464.996H440.737V465.319H509.093V464.996Z" fill="#E6E6E6"/>
<path d="M281.193 398.818H32.1107C30.1594 398.815 28.2892 398.038 26.9106 396.656C25.5321 395.275 24.7578 393.404 24.7578 391.453V41.3068C24.7748 39.3666 25.5566 37.5115 26.9333 36.1444C28.31 34.7774 30.1705 34.0087 32.1107 34.0053H281.193C283.146 34.0053 285.02 34.7814 286.401 36.1628C287.783 37.5441 288.559 39.4177 288.559 41.3713V391.453C288.559 393.406 287.783 395.28 286.401 396.661C285.02 398.042 283.146 398.818 281.193 398.818ZM32.1107 34.2633C30.2449 34.2668 28.4568 35.0103 27.1387 36.3309C25.8206 37.6514 25.0803 39.441 25.0803 41.3068V391.453C25.0803 393.318 25.8206 395.108 27.1387 396.428C28.4568 397.749 30.2449 398.493 32.1107 398.496H281.193C283.06 398.493 284.849 397.749 286.169 396.429C287.49 395.109 288.233 393.32 288.236 391.453V41.3068C288.233 39.4398 287.49 37.6502 286.169 36.3301C284.849 35.0099 283.06 34.2668 281.193 34.2633H32.1107Z" fill="#E6E6E6"/>
<path d="M560.227 398.818H311.132C309.18 398.815 307.308 398.038 305.928 396.657C304.547 395.277 303.77 393.405 303.767 391.453V41.3068C303.787 39.3655 304.572 37.5104 305.95 36.1436C307.329 34.7769 309.191 34.0086 311.132 34.0053H560.227C562.165 34.0121 564.022 34.7822 565.396 36.149C566.77 37.5157 567.55 39.3689 567.567 41.3068V391.453C567.567 393.402 566.795 395.271 565.419 396.652C564.043 398.033 562.176 398.812 560.227 398.818ZM311.132 34.2633C309.265 34.2668 307.476 35.0099 306.156 36.3301C304.836 37.6502 304.093 39.4398 304.089 41.3068V391.453C304.093 393.32 304.836 395.109 306.156 396.429C307.476 397.749 309.265 398.493 311.132 398.496H560.227C562.094 398.493 563.884 397.749 565.204 396.429C566.524 395.109 567.267 393.32 567.271 391.453V41.3068C567.267 39.4398 566.524 37.6502 565.204 36.3301C563.884 35.0099 562.094 34.2668 560.227 34.2633H311.132Z" fill="#E6E6E6"/>
<path d="M532.131 72.6801H201.213V221.946H532.131V72.6801Z" fill="#E0E0E0"/>
<path d="M539.15 72.6801H204.49V221.946H539.15V72.6801Z" fill="#F5F5F5"/>
<path d="M532.131 221.946H201.213V234.988H532.131V221.946Z" fill="#E0E0E0"/>
<path d="M550.85 221.946H216.19V234.988H550.85V221.946Z" fill="#F5F5F5"/>
<path d="M529.32 212.129V82.5096L214.32 82.5096V212.129L529.32 212.129Z" fill="#FAFAFA"/>
<path d="M297.679 212.116L355.354 82.4966H414.37L356.708 212.116H297.679Z" fill="white"/>
<path d="M218.875 190.457C218.689 190.457 218.51 190.384 218.377 190.254C218.245 190.124 218.168 189.946 218.165 189.76V88.895C218.168 88.7091 218.245 88.5319 218.377 88.4016C218.51 88.2713 218.689 88.1984 218.875 88.1984C219.059 88.1984 219.236 88.2718 219.367 88.4024C219.498 88.5331 219.571 88.7102 219.571 88.895V189.76C219.571 189.945 219.498 190.122 219.367 190.253C219.236 190.384 219.059 190.457 218.875 190.457Z" fill="#E6E6E6"/>
<path d="M378.896 212.116L436.559 82.4966H456.979L399.304 212.116H378.896Z" fill="white"/>
<path d="M529.32 212.129V82.5096H528.069V212.129H529.32Z" fill="#E6E6E6"/>
<path d="M541.472 92.4043H210.553L209.65 86.3284H540.569L541.472 92.4043Z" fill="#E0E0E0"/>
<path d="M541.472 102.453H210.553L209.65 96.3645H540.569L541.472 102.453Z" fill="#E0E0E0"/>
<path d="M541.472 112.502H210.553L209.65 106.426H540.569L541.472 112.502Z" fill="#E0E0E0"/>
<path d="M541.472 122.552H210.553L209.65 116.463H540.569L541.472 122.552Z" fill="#E0E0E0"/>
<path d="M541.472 132.6H210.553L209.65 126.511H540.569L541.472 132.6Z" fill="#E0E0E0"/>
<path d="M541.472 142.65H210.553L209.65 136.561H540.569L541.472 142.65Z" fill="#E0E0E0"/>
<path d="M439.113 188.381C448.736 189.671 454.696 168.785 433.424 151.061C434.572 171.572 422.317 186.071 439.113 188.381Z" fill="#F0F0F0"/>
<path d="M445.176 201.616C459.133 191.824 449.588 157.626 406.36 160.103C425.065 185.271 420.834 218.669 445.176 201.616Z" fill="#E0E0E0"/>
<path d="M440.248 201.383C430.96 191.386 444.182 166.231 477.567 175.416C458.72 191.979 456.437 218.811 440.248 201.383Z" fill="#E0E0E0"/>
<path d="M425.877 221.946H454.566L456.733 202.867H423.71L425.877 221.946Z" fill="#EBEBEB"/>
<path d="M421.569 206.273H458.875V202.067H421.569V206.273Z" fill="#EBEBEB"/>
<path d="M284.457 197.694C284.457 197.694 285.902 222.037 341.216 222.037C396.53 222.037 397.975 197.694 397.975 197.694H284.457Z" fill="#E0E0E0"/>
<path d="M102.994 304.352H67.752V449.503H102.994V304.352Z" fill="#E6E6E6"/>
<path d="M358.089 449.503H74.5127V456.353H358.089V449.503Z" fill="#E6E6E6"/>
<path d="M102.983 449.503L364.849 449.503V304.352H102.983V449.503Z" fill="#FAFAFA"/>
<path d="M116.837 394.651L350.994 394.651V359.202H116.837V394.651Z" fill="#E6E6E6"/>
<path d="M116.837 436.577L350.994 436.577V401.127H116.837V436.577Z" fill="#E6E6E6"/>
<path d="M303.78 363.086H164.062C163.418 363.086 162.8 362.831 162.343 362.376C161.886 361.922 161.627 361.305 161.624 360.661C161.624 360.014 161.881 359.394 162.338 358.937C162.795 358.479 163.415 358.223 164.062 358.223H303.78C304.426 358.223 305.046 358.479 305.504 358.937C305.961 359.394 306.218 360.014 306.218 360.661C306.214 361.305 305.956 361.922 305.499 362.376C305.042 362.831 304.424 363.086 303.78 363.086Z" fill="#FAFAFA"/>
<path d="M116.837 352.727L350.994 352.727V317.277H116.837V352.727Z" fill="#E6E6E6"/>
<path d="M303.78 321.174H164.062C163.415 321.174 162.795 320.917 162.338 320.459C161.881 320.002 161.624 319.382 161.624 318.735C161.627 318.091 161.886 317.474 162.343 317.02C162.8 316.565 163.418 316.31 164.062 316.31H303.78C304.424 316.31 305.042 316.565 305.499 317.02C305.956 317.474 306.214 318.091 306.218 318.735C306.218 319.382 305.961 320.002 305.504 320.459C305.046 320.917 304.426 321.174 303.78 321.174Z" fill="#FAFAFA"/>
<path d="M303.78 405.01H164.062C163.415 405.01 162.795 404.754 162.338 404.296C161.881 403.839 161.624 403.219 161.624 402.572C161.627 401.928 161.886 401.311 162.343 400.857C162.8 400.402 163.418 400.147 164.062 400.147H303.78C304.424 400.147 305.042 400.402 305.499 400.857C305.956 401.311 306.214 401.928 306.218 402.572C306.218 403.219 305.961 403.839 305.504 404.296C305.046 404.754 304.426 405.01 303.78 405.01Z" fill="#FAFAFA"/>
<path d="M369.555 292.432H102.994V304.352H369.555V292.432Z" fill="#E6E6E6"/>
<path d="M62.8242 304.365H102.994V292.445H62.8242V304.365Z" fill="#E0E0E0"/>
<path d="M145.81 105.253H61.3291V198.017H145.81V105.253Z" fill="#E0E0E0"/>
<path d="M135.425 109.355C135.301 109.352 135.181 109.317 135.076 109.252C134.87 109.135 114.991 97.3062 108.735 97.3062C102.479 97.3062 83.5159 109.123 83.3353 109.239C83.2574 109.288 83.1706 109.321 83.0798 109.337C82.989 109.352 82.896 109.35 82.8062 109.329C82.7163 109.309 82.6314 109.271 82.5562 109.218C82.481 109.165 82.417 109.097 82.3678 109.019C82.3187 108.941 82.2854 108.855 82.2699 108.764C82.2543 108.673 82.2568 108.58 82.2771 108.49C82.2975 108.4 82.3353 108.315 82.3885 108.24C82.4417 108.165 82.5092 108.101 82.5871 108.052C83.374 107.562 102.079 95.9001 108.735 95.9001C115.391 95.9001 134.96 107.51 135.825 108.039C135.945 108.123 136.037 108.243 136.086 108.381C136.136 108.52 136.142 108.67 136.102 108.812C136.062 108.954 135.979 109.08 135.865 109.172C135.751 109.265 135.61 109.32 135.463 109.329L135.425 109.355Z" fill="#E0E0E0"/>
<path d="M154.943 105.253H67.6885V198.017H154.943V105.253Z" fill="#F5F5F5"/>
<path d="M147.642 190.715V112.567H75.0029V190.715H147.642Z" fill="white"/>
<path d="M128.975 170.011H93.6429C93.4581 170.011 93.281 169.937 93.1503 169.807C93.0197 169.676 92.9463 169.499 92.9463 169.314V133.955C92.9463 133.77 93.0197 133.593 93.1503 133.463C93.281 133.332 93.4581 133.259 93.6429 133.259H128.975C129.16 133.259 129.337 133.332 129.468 133.463C129.599 133.593 129.672 133.77 129.672 133.955V169.314C129.672 169.499 129.599 169.676 129.468 169.807C129.337 169.937 129.16 170.011 128.975 170.011ZM94.3137 168.605H128.266V134.626H94.3395L94.3137 168.605Z" fill="#F5F5F5"/>
<path d="M99.835 140.147L122.809 163.122V140.147H99.835Z" fill="#F5F5F5"/>
<path d="M397.755 456.521H447.445V396.974H397.755V456.521Z" fill="#E6E6E6"/>
<path d="M397.743 396.961H447.433L437.462 379.198H387.771L397.743 396.961Z" fill="#E6E6E6"/>
<path d="M495.884 379.198H545.574L535.602 396.961H485.912L495.884 379.198Z" fill="#F0F0F0"/>
<path d="M535.59 396.961H447.433V456.507H535.59V396.961Z" fill="#FAFAFA"/>
<path d="M466.937 416.633H446.736V436.835H466.937V416.633Z" fill="#E6E6E6"/>
<path d="M297.962 514.609C436.096 514.609 548.076 508.072 548.076 500.007C548.076 491.942 436.096 485.404 297.962 485.404C159.828 485.404 47.8477 491.942 47.8477 500.007C47.8477 508.072 159.828 514.609 297.962 514.609Z" fill="#F5F5F5"/>
<path d="M270.408 102.517C272.008 97.6281 272.821 70.9121 246.002 77.3492C226.072 82.1351 232.006 107.497 212.617 110.36C212.617 110.36 241.152 123.905 250.439 105.2C257.754 90.4299 265.352 103.833 265.352 103.833L270.408 102.517Z" fill="#263238"/>
<path d="M264.927 107.174C263.727 106.091 263.211 103.382 264.14 102.943C265.069 102.505 269.984 101.137 271.364 101.382C272.938 101.653 272.654 105.459 272.654 105.459L264.927 107.174Z" fill="#407BFF"/>
<path opacity="0.2" d="M264.927 107.174C263.727 106.091 263.211 103.382 264.14 102.943C265.069 102.505 269.984 101.137 271.364 101.382C272.938 101.653 272.654 105.459 272.654 105.459L264.927 107.174Z" fill="black"/>
<path d="M194.234 409.5L203.729 410.429L213.597 387.854L204.103 386.925L194.234 409.5Z" fill="#E4897B"/>
<path d="M108.787 350.56L113.057 359.396L134.896 352.34L130.626 343.503L108.787 350.56Z" fill="#E4897B"/>
<path d="M115.443 358.828L116.191 347.811C116.205 347.622 116.15 347.435 116.036 347.283C115.922 347.131 115.757 347.026 115.572 346.986L106.955 345.141C106.737 345.103 106.514 345.11 106.299 345.164C106.085 345.217 105.884 345.316 105.71 345.452C105.536 345.588 105.393 345.76 105.289 345.955C105.186 346.15 105.125 346.365 105.11 346.586C104.904 350.456 105.007 352.301 104.672 357.138C104.465 360.118 103.588 366.671 103.304 370.774C103.02 374.876 107.071 375.392 107.561 373.702C109.728 366.142 112.373 362.853 114.721 360.415C115.138 359.986 115.394 359.425 115.443 358.828Z" fill="#263238"/>
<path d="M204.982 407.501H193.372C193.163 407.504 192.961 407.575 192.796 407.703C192.631 407.831 192.511 408.009 192.456 408.21L189.876 417.421C189.813 417.639 189.802 417.868 189.845 418.09C189.887 418.313 189.981 418.523 190.119 418.702C190.257 418.882 190.435 419.026 190.64 419.124C190.844 419.222 191.068 419.27 191.295 419.266C195.397 419.266 197.345 419.266 202.466 419.266H218.126C222.37 419.266 223.286 414.957 221.506 414.57C213.611 412.816 209.058 410.416 206.62 408.12C206.171 407.715 205.586 407.493 204.982 407.501Z" fill="#263238"/>
<path d="M213.585 387.866L208.503 399.502H198.608L204.104 386.937L213.585 387.866Z" fill="#CE6F64"/>
<path d="M130.627 343.503L134.897 352.34L123.635 355.978L119.365 347.128L130.627 343.503Z" fill="#CE6F64"/>
<path d="M114.94 364.427C114.74 364.437 114.54 364.401 114.357 364.32C114.173 364.239 114.011 364.117 113.883 363.963C113.109 362.982 113.638 360.738 114.025 359.499C114.037 359.455 114.062 359.416 114.096 359.386C114.13 359.357 114.173 359.338 114.218 359.332C114.263 359.33 114.308 359.34 114.349 359.36C114.389 359.38 114.424 359.41 114.45 359.448C114.644 359.796 116.359 362.905 115.74 364.014C115.673 364.138 115.575 364.241 115.455 364.314C115.334 364.386 115.197 364.426 115.057 364.427H114.94ZM114.308 360.17C113.857 361.86 113.831 363.15 114.308 363.666C114.406 363.782 114.532 363.871 114.675 363.923C114.818 363.975 114.971 363.989 115.121 363.963C115.181 363.965 115.241 363.951 115.293 363.921C115.346 363.892 115.389 363.848 115.418 363.795C115.676 363.214 114.966 361.434 114.308 360.17Z" fill="#407BFF"/>
<path d="M117.494 362.427C116.359 362.427 114.489 360.596 114.037 359.667C114.018 359.631 114.008 359.591 114.008 359.551C114.008 359.51 114.018 359.47 114.037 359.435C114.063 359.404 114.094 359.38 114.13 359.362C114.165 359.344 114.204 359.334 114.243 359.331C114.372 359.331 117.185 359.551 118.113 360.621C118.222 360.763 118.299 360.926 118.341 361.099C118.384 361.272 118.389 361.452 118.358 361.628C118.342 361.813 118.263 361.987 118.134 362.121C118.005 362.255 117.834 362.34 117.649 362.363L117.494 362.427ZM114.682 359.847C115.366 360.841 116.875 362.079 117.559 361.963C117.662 361.963 117.804 361.899 117.855 361.602C117.882 361.492 117.882 361.377 117.855 361.267C117.828 361.157 117.775 361.055 117.701 360.97C116.833 360.294 115.78 359.898 114.682 359.835V359.847Z" fill="#407BFF"/>
<path d="M210.154 409.397C209.081 409.371 208.014 409.237 206.968 408.997C206.92 408.986 206.876 408.961 206.844 408.923C206.812 408.886 206.792 408.84 206.787 408.791C206.781 408.743 206.789 408.695 206.813 408.653C206.836 408.611 206.872 408.578 206.916 408.559C207.703 408.184 211.664 406.391 212.721 407.101C212.822 407.171 212.902 407.266 212.955 407.377C213.007 407.488 213.029 407.611 213.018 407.733C213.008 407.952 212.95 408.167 212.847 408.361C212.745 408.555 212.6 408.724 212.425 408.855C211.742 409.265 210.949 409.454 210.154 409.397ZM207.768 408.688C209.858 409.062 211.457 408.997 212.141 408.481C212.263 408.391 212.363 408.275 212.435 408.141C212.506 408.007 212.547 407.859 212.554 407.707C212.554 407.565 212.554 407.514 212.463 407.488C211.896 407.127 209.509 407.952 207.768 408.713V408.688Z" fill="#407BFF"/>
<path d="M207.019 409.023C206.97 409.043 206.914 409.043 206.865 409.023C206.832 408.994 206.808 408.958 206.795 408.917C206.781 408.876 206.779 408.832 206.787 408.79C206.787 408.61 207.806 404.417 210.128 404.688C210.722 404.753 210.889 405.049 210.915 405.294C211.07 406.391 208.413 408.519 207.045 409.061L207.019 409.023ZM209.909 405.153C208.516 405.153 207.677 407.41 207.329 408.429C208.619 407.694 210.502 406.004 210.425 405.372C210.425 405.256 210.27 405.191 210.025 405.153H209.909Z" fill="#407BFF"/>
<path d="M260.722 216.696C260.722 216.696 262.012 294.599 251.834 322.747C242.03 349.734 212.786 396.123 212.786 396.123L195.836 395.697C195.836 395.697 222.758 336.963 227.17 313.717C234.497 275.185 232.884 207.937 232.884 207.937L260.722 216.696Z" fill="#407BFF"/>
<path opacity="0.5" d="M260.722 216.696C260.722 216.696 262.012 294.599 251.834 322.747C242.03 349.734 212.786 396.123 212.786 396.123L195.836 395.697C195.836 395.697 222.758 336.963 227.17 313.717C234.497 275.185 232.884 207.937 232.884 207.937L260.722 216.696Z" fill="white"/>
<path opacity="0.22" d="M245.5 223.352L240.946 210.452L232.884 207.872C232.884 207.872 233.619 238.484 231.852 270.231C239.166 256.209 245.5 230.409 245.5 223.352Z" fill="#407BFF"/>
<path d="M252.388 214.18C252.388 214.18 225.943 274.668 208.851 309.098C195.048 336.911 127.582 357.022 127.582 357.022L122.268 344.586C122.268 344.586 172.706 321.856 182.239 302.997C212.747 242.65 205.226 217.779 222.77 204.66L252.388 214.18Z" fill="#407BFF"/>
<path opacity="0.5" d="M252.388 214.18C252.388 214.18 225.943 274.668 208.851 309.098C195.048 336.911 127.582 357.022 127.582 357.022L122.268 344.586C122.268 344.586 172.706 321.856 182.239 302.997C212.747 242.65 205.226 217.779 222.77 204.66L252.388 214.18Z" fill="white"/>
<path d="M287.978 114.631C288.572 118.023 288.83 129.259 280.974 131.723C273.118 134.187 287.978 114.631 287.978 114.631Z" fill="#263238"/>
<path d="M284.715 165.405L285.218 166.063L285.824 166.824C286.25 167.34 286.675 167.856 287.114 168.359C288.004 169.391 288.984 170.372 289.965 171.326C291.928 173.277 294.037 175.075 296.273 176.706C298.497 178.36 300.838 179.852 303.277 181.169C304.49 181.866 305.767 182.395 307.018 183.001L307.225 183.104C307.225 183.104 307.289 183.104 307.328 183.104C307.444 183.115 307.56 183.115 307.676 183.104C308.083 183.158 308.495 183.158 308.902 183.104C311.363 182.552 313.717 181.598 315.868 180.279C318.355 178.853 320.766 177.299 323.091 175.622C325.465 173.932 327.8 172.113 330.096 170.243C332.392 168.372 334.701 166.45 336.92 164.541L340.532 167.972C336.581 172.751 332.268 177.219 327.632 181.337C325.266 183.46 322.762 185.425 320.137 187.219C317.262 189.272 314.048 190.805 310.643 191.747C309.569 191.994 308.469 192.116 307.367 192.108C306.735 192.093 306.105 192.028 305.483 191.915C305.148 191.837 304.825 191.773 304.49 191.67L303.639 191.373C302.116 190.767 300.581 190.212 299.111 189.49C296.13 188.151 293.273 186.554 290.571 184.717C287.867 182.87 285.309 180.817 282.922 178.576C281.748 177.441 280.6 176.267 279.503 175.016C278.948 174.397 278.419 173.726 277.891 173.094L277.117 172.075C276.846 171.713 276.626 171.404 276.291 170.901L284.715 165.405Z" fill="#E4897B"/>
<path d="M273.698 158.555C285.527 159.561 292.725 170.926 292.725 170.926L278.535 184.82C278.535 184.82 268.873 175.067 267.996 169.714C267.106 164.128 267.622 158.039 273.698 158.555Z" fill="#263238"/>
<path d="M336.186 167.031L336.663 158.271L345.693 163.264C345.693 163.264 343.113 168.127 339.346 169.585L336.186 167.031Z" fill="#E4897B"/>
<path d="M342.415 151.835L348.375 156.788L345.627 163.264L336.662 158.272L342.415 151.835Z" fill="#E4897B"/>
<path d="M283.282 161.832C283.282 161.832 287.036 164.593 260.721 216.696L222.705 204.66C228.239 189.386 231.271 179.853 233.928 145.758C239.583 146.344 245.187 147.34 250.698 148.738C256.579 150.147 262.351 151.974 267.97 154.208C273.201 156.486 278.312 159.031 283.282 161.832Z" fill="#263238"/>
<path d="M258.606 129.84C257.935 135.748 255.807 146.262 250.737 148.739C250.737 148.739 250.479 154.853 260.799 158.117C272.151 161.716 268.01 154.247 268.01 154.247C262.282 150.803 263.895 146.262 266.333 142.289L258.606 129.84Z" fill="#E4897B"/>
<path d="M261.754 134.896L266.333 142.236C265.748 143.157 265.248 144.129 264.837 145.139C262.579 144.042 259.677 140.792 260.206 138.237C260.521 137.041 261.045 135.91 261.754 134.896Z" fill="#CE6F64"/>
<path d="M261.287 116.695C258.037 125.892 256.476 129.711 259.043 136.225C262.913 146.016 274.91 147.99 280.831 139.966C286.171 132.729 290.583 118.926 283.333 111.586C281.737 109.976 279.755 108.8 277.577 108.171C275.398 107.543 273.095 107.481 270.886 107.993C268.677 108.505 266.635 109.573 264.955 111.096C263.276 112.619 262.013 114.546 261.287 116.695Z" fill="#E4897B"/>
<path d="M259.457 124.306C264.204 123.764 272.099 118.604 272.628 114.657C272.628 114.657 282.135 121.21 287.14 118.101C291.513 115.379 281.696 102.621 270.009 104.478C257.303 106.478 255.677 117.778 259.457 124.306Z" fill="#263238"/>
<path d="M256.477 124.189C255.932 125.994 256.122 127.942 257.006 129.607C258.206 131.8 260.579 131.155 261.74 129.091C262.785 127.234 263.43 123.867 261.508 122.358C261.083 122.039 260.585 121.832 260.059 121.755C259.533 121.677 258.997 121.732 258.498 121.913C257.998 122.095 257.552 122.398 257.199 122.796C256.847 123.193 256.599 123.672 256.477 124.189Z" fill="#E4897B"/>
<path d="M215.171 397L194.234 396.471L195.447 390.034L218.305 391.117L215.171 397Z" fill="#407BFF"/>
<path d="M127.685 358.57L121.003 342.961L126.834 339.452L133.812 357.177L127.685 358.57Z" fill="#407BFF"/>
<path d="M273.802 124.964C273.505 125.686 273.634 126.447 274.112 126.641C274.589 126.834 275.221 126.421 275.531 125.699C275.84 124.976 275.711 124.202 275.234 124.009C274.757 123.815 274.112 124.228 273.802 124.964Z" fill="#263238"/>
<path d="M282.044 128.46C281.735 129.182 281.876 129.943 282.354 130.137C282.831 130.33 283.463 129.918 283.773 129.182C284.082 128.447 283.953 127.699 283.476 127.505C282.999 127.312 282.354 127.725 282.044 128.46Z" fill="#263238"/>
<path d="M283.244 127.453L285.205 127.685C285.205 127.685 283.773 128.679 283.244 127.453Z" fill="#263238"/>
<path d="M279.336 128.782C279.282 130.72 279.495 132.656 279.968 134.535C279.484 134.644 278.981 134.646 278.496 134.541C278.01 134.436 277.553 134.228 277.156 133.929L279.336 128.782Z" fill="#DE5753"/>
<path d="M273.452 135.722H273.362C272.371 135.333 271.489 134.712 270.788 133.91C270.088 133.109 269.59 132.151 269.337 131.117C269.329 131.057 269.343 130.997 269.376 130.947C269.409 130.897 269.46 130.861 269.518 130.846C269.548 130.84 269.58 130.841 269.61 130.848C269.64 130.855 269.669 130.867 269.694 130.885C269.719 130.904 269.741 130.926 269.757 130.953C269.773 130.979 269.784 131.009 269.789 131.039C270.041 131.992 270.512 132.872 271.163 133.611C271.815 134.35 272.629 134.927 273.543 135.296C273.599 135.319 273.643 135.363 273.667 135.419C273.691 135.474 273.693 135.537 273.672 135.593C273.652 135.634 273.62 135.667 273.581 135.69C273.542 135.713 273.497 135.724 273.452 135.722Z" fill="#263238"/>
<path d="M272.628 121.287C272.526 121.286 272.428 121.252 272.347 121.19C272.267 121.128 272.209 121.041 272.183 120.943C272.157 120.845 272.163 120.741 272.201 120.647C272.24 120.553 272.308 120.474 272.395 120.423C273.028 120.038 273.743 119.81 274.481 119.758C275.22 119.707 275.96 119.833 276.639 120.126C276.695 120.154 276.745 120.192 276.785 120.239C276.826 120.285 276.857 120.34 276.876 120.399C276.895 120.458 276.902 120.52 276.897 120.582C276.892 120.643 276.874 120.703 276.846 120.758C276.784 120.864 276.685 120.943 276.569 120.981C276.452 121.019 276.326 121.013 276.214 120.965C275.675 120.737 275.089 120.641 274.505 120.686C273.922 120.731 273.357 120.915 272.86 121.223C272.792 121.271 272.71 121.294 272.628 121.287Z" fill="#263238"/>
<path d="M287.642 126.28C287.535 126.281 287.43 126.244 287.348 126.176C287.265 126.107 287.209 126.011 287.191 125.906C287.096 125.33 286.869 124.784 286.526 124.311C286.183 123.839 285.735 123.453 285.217 123.184C285.159 123.162 285.106 123.13 285.061 123.087C285.017 123.044 284.981 122.993 284.957 122.936C284.933 122.88 284.92 122.818 284.921 122.757C284.921 122.695 284.934 122.634 284.959 122.577C285.008 122.465 285.098 122.375 285.211 122.327C285.324 122.279 285.451 122.276 285.566 122.319C286.238 122.637 286.824 123.113 287.273 123.706C287.722 124.299 288.022 124.991 288.146 125.725C288.157 125.785 288.156 125.847 288.143 125.907C288.13 125.967 288.106 126.023 288.071 126.074C288.036 126.124 287.992 126.167 287.941 126.2C287.889 126.233 287.832 126.256 287.771 126.267L287.642 126.28Z" fill="#263238"/>
<path d="M234.418 160.813C233.231 162.322 232.122 163.586 230.922 164.889C229.723 166.192 228.523 167.469 227.285 168.682C224.782 171.133 222.125 173.468 219.454 175.686C216.722 177.933 213.848 180.002 210.85 181.878C210.115 182.369 209.328 182.807 208.567 183.259C207.806 183.71 207.032 184.175 206.219 184.549C205.406 184.923 204.671 185.374 203.781 185.839L202.336 186.471L200.866 186.987C197.17 188.062 193.318 188.498 189.475 188.277C185.901 188.108 182.348 187.625 178.859 186.832C175.464 186.06 172.11 185.117 168.81 184.007C165.537 182.886 162.324 181.594 159.187 180.137L161.044 175.519C164.114 176.409 167.352 177.26 170.538 177.931C173.699 178.644 176.893 179.195 180.11 179.582C183.232 179.982 186.38 180.142 189.527 180.059C191.018 180.016 192.504 179.878 193.977 179.647C195.342 179.407 196.684 179.054 197.989 178.589L198.879 178.228L199.718 177.802C200.324 177.479 201.008 177.015 201.691 176.641C202.375 176.267 202.981 175.828 203.678 175.351C204.374 174.874 204.968 174.512 205.626 174.061C208.206 172.242 210.67 170.191 213.121 168.14C215.572 166.089 217.868 163.844 220.125 161.548C221.273 160.413 222.383 159.252 223.479 158.078C224.576 156.904 225.659 155.653 226.588 154.569L234.418 160.813Z" fill="#E4897B"/>
<path d="M164.089 176.989L159.11 169.778L154.079 178.718C154.079 178.718 158.775 181.543 162.786 180.795L164.089 176.989Z" fill="#E4897B"/>
<path d="M150.828 167.302L148.338 174.642L154.078 178.718L159.109 169.779L150.828 167.302Z" fill="#E4897B"/>
<path d="M233.929 145.758C228.988 145.539 219.274 157.678 219.274 157.678L229.672 172.397C229.672 172.397 240.688 162.928 241.565 156.633C242.313 151.28 240.224 146.042 233.929 145.758Z" fill="#263238"/>
<path d="M275.001 123.958L276.962 124.19C276.962 124.19 275.491 125.183 275.001 123.958Z" fill="#263238"/>
<path d="M254.775 143.656C254.065 143.062 253.485 145.101 253.252 145.926C253.222 146.034 253.223 146.148 253.255 146.255C253.287 146.363 253.349 146.459 253.433 146.532C254.826 147.732 260.889 151.228 264.346 150.132C264.423 150.107 264.491 150.059 264.54 149.995C264.588 149.93 264.615 149.851 264.617 149.77C264.533 148.995 264.49 148.216 264.488 147.435C264.494 147.385 264.488 147.334 264.473 147.285C264.457 147.237 264.431 147.192 264.397 147.155C264.363 147.117 264.321 147.087 264.275 147.066C264.228 147.046 264.178 147.035 264.127 147.036C260.702 147.082 257.378 145.881 254.775 143.656Z" fill="#407BFF"/>
<path opacity="0.2" d="M254.775 143.656C254.065 143.062 253.485 145.101 253.252 145.926C253.222 146.034 253.223 146.148 253.255 146.255C253.287 146.363 253.349 146.459 253.433 146.532C254.826 147.732 260.889 151.228 264.346 150.132C264.423 150.107 264.491 150.059 264.54 149.995C264.588 149.93 264.615 149.851 264.617 149.77C264.533 148.995 264.49 148.216 264.488 147.435C264.494 147.385 264.488 147.334 264.473 147.285C264.457 147.237 264.431 147.192 264.397 147.155C264.363 147.117 264.321 147.087 264.275 147.066C264.228 147.046 264.178 147.035 264.127 147.036C260.702 147.082 257.378 145.881 254.775 143.656Z" fill="black"/>
<path d="M222.835 202.248L220.049 205.112C219.829 205.331 220.049 205.705 220.5 205.847L260.373 218.476C260.709 218.592 261.044 218.476 261.134 218.309L262.553 215.006C262.657 214.774 262.424 214.49 262.05 214.374L223.545 202.184C223.43 202.133 223.306 202.113 223.181 202.124C223.057 202.136 222.938 202.178 222.835 202.248Z" fill="#407BFF"/>
<path opacity="0.2" d="M222.835 202.248L220.049 205.112C219.829 205.331 220.049 205.705 220.5 205.847L260.373 218.476C260.709 218.592 261.044 218.476 261.134 218.309L262.553 215.006C262.657 214.774 262.424 214.49 262.05 214.374L223.545 202.184C223.43 202.133 223.306 202.113 223.181 202.124C223.057 202.136 222.938 202.178 222.835 202.248Z" fill="black"/>
<path d="M226.653 208.156L225.621 207.821C225.414 207.756 225.285 207.601 225.35 207.485L227.22 203.215C227.275 203.146 227.352 203.096 227.439 203.075C227.525 203.054 227.616 203.063 227.697 203.099L228.729 203.435C228.936 203.435 229.065 203.654 229 203.77L227.117 208.04C227.014 208.156 226.859 208.259 226.653 208.156Z" fill="#407BFF"/>
<path d="M257.353 217.908L256.321 217.586C256.115 217.521 255.999 217.366 256.05 217.237L257.934 212.967C257.934 212.838 258.205 212.787 258.411 212.864L259.443 213.187C259.636 213.187 259.765 213.406 259.714 213.535L257.83 217.792C257.779 217.921 257.56 217.973 257.353 217.908Z" fill="#407BFF"/>
<path d="M242.003 213.045L240.971 212.723C240.764 212.723 240.648 212.504 240.7 212.375L242.583 208.105C242.583 207.989 242.841 207.937 243.047 208.001L244.079 208.324C244.286 208.388 244.415 208.543 244.363 208.672L242.493 212.942C242.415 213.071 242.209 213.11 242.003 213.045Z" fill="#407BFF"/>
<path opacity="0.5" d="M226.653 208.156L225.621 207.821C225.414 207.756 225.285 207.601 225.35 207.485L227.22 203.215C227.275 203.146 227.352 203.096 227.439 203.075C227.525 203.054 227.616 203.063 227.697 203.099L228.729 203.435C228.936 203.435 229.065 203.654 229 203.77L227.117 208.04C227.014 208.156 226.859 208.259 226.653 208.156Z" fill="white"/>
<path opacity="0.5" d="M257.353 217.908L256.321 217.586C256.115 217.521 255.999 217.366 256.05 217.237L257.934 212.967C257.934 212.838 258.205 212.787 258.411 212.864L259.443 213.187C259.636 213.187 259.765 213.406 259.714 213.535L257.83 217.792C257.779 217.921 257.56 217.973 257.353 217.908Z" fill="white"/>
<path opacity="0.5" d="M242.003 213.045L240.971 212.723C240.764 212.723 240.648 212.504 240.7 212.375L242.583 208.105C242.583 207.989 242.841 207.937 243.047 208.001L244.079 208.324C244.286 208.388 244.415 208.543 244.363 208.672L242.493 212.942C242.415 213.071 242.209 213.11 242.003 213.045Z" fill="white"/>
<path opacity="0.2" d="M104.246 412.596C124.808 443.556 185.579 448.342 211.392 429.856C248.027 403.618 246.002 334.267 284.056 309.692C354.025 264.542 439.525 388.537 493.613 265.342V495.543H104.246V412.596Z" fill="#407BFF"/>
<path d="M170.06 441.247C163.466 441.245 156.886 440.645 150.401 439.454C129.142 435.584 112.579 426.128 103.794 412.905C103.737 412.785 103.725 412.647 103.76 412.519C103.796 412.39 103.877 412.278 103.989 412.205C104.1 412.131 104.234 412.1 104.367 412.117C104.499 412.135 104.621 412.199 104.71 412.299C113.211 425.083 129.929 434.59 150.594 438.37C173.814 442.627 197.524 439.105 211.069 429.405C228.922 416.621 237.707 393.052 246.195 370.258C255.057 346.457 264.254 321.844 283.759 309.228C312.603 290.6 344.156 300.546 374.69 310.157C419.245 324.205 461.35 337.466 493.11 265.123C493.18 265.01 493.289 264.926 493.416 264.886C493.543 264.846 493.68 264.854 493.802 264.907C493.924 264.96 494.023 265.056 494.081 265.176C494.138 265.296 494.151 265.433 494.116 265.561C479.475 298.895 461.866 316.529 438.763 321.031C418.381 325.03 396.993 318.297 374.354 311.163C344.078 301.63 312.758 291.813 284.352 310.118C265.132 322.528 255.973 346.96 247.214 370.606C238.674 393.555 229.825 417.279 211.714 430.269C201.807 437.39 186.572 441.247 170.06 441.247Z" fill="#407BFF"/>
<path d="M136.508 383.313H81.3096V495.543H136.508V383.313Z" fill="#407BFF"/>
<path opacity="0.3" d="M136.508 383.313H81.3096V495.543H136.508V383.313Z" fill="black"/>
<path d="M227.374 419.291H172.176V495.543H227.374V419.291Z" fill="#407BFF"/>
<path opacity="0.3" d="M227.374 419.291H172.176V495.543H227.374V419.291Z" fill="black"/>
<path d="M318.241 354.868H263.043V495.543H318.241V354.868Z" fill="#407BFF"/>
<path opacity="0.3" d="M318.241 354.868H263.043V495.543H318.241V354.868Z" fill="black"/>
<path d="M409.094 277.571H353.896V495.543H409.094V277.571Z" fill="#407BFF"/>
<path opacity="0.3" d="M409.094 277.571H353.896V495.543H409.094V277.571Z" fill="black"/>
<path d="M499.96 170.475H444.762V495.543H499.96V170.475Z" fill="#407BFF"/>
<path opacity="0.3" d="M499.96 170.475H444.762V495.543H499.96V170.475Z" fill="black"/>
<path d="M151.162 383.313H95.9639V495.543H151.162V383.313Z" fill="#407BFF"/>
<path opacity="0.1" d="M151.162 383.313H95.9639V495.543H151.162V383.313Z" fill="black"/>
<path d="M242.028 419.291H186.83V495.543H242.028V419.291Z" fill="#407BFF"/>
<path opacity="0.1" d="M242.028 419.291H186.83V495.543H242.028V419.291Z" fill="black"/>
<path d="M332.882 354.868H277.684V495.543H332.882V354.868Z" fill="#407BFF"/>
<path opacity="0.1" d="M332.882 354.868H277.684V495.543H332.882V354.868Z" fill="black"/>
<path d="M423.748 277.571H368.55V495.543H423.748V277.571Z" fill="#407BFF"/>
<path opacity="0.1" d="M423.748 277.571H368.55V495.543H423.748V277.571Z" fill="black"/>
<path d="M514.614 170.475H459.416V495.543H514.614V170.475Z" fill="#407BFF"/>
<path opacity="0.1" d="M514.614 170.475H459.416V495.543H514.614V170.475Z" fill="black"/>
<path d="M400.826 216.064C397.28 212.516 392.469 210.522 387.453 210.521C382.437 210.52 377.626 212.511 374.078 216.057C370.53 219.604 368.536 224.414 368.535 229.43C368.534 234.446 370.525 239.258 374.072 242.806L387.449 256.17L400.813 242.793C402.569 241.039 403.962 238.956 404.913 236.663C405.864 234.37 406.354 231.913 406.356 229.431C406.357 226.949 405.869 224.491 404.92 222.197C403.971 219.904 402.58 217.82 400.826 216.064Z" fill="#407BFF"/>
<path opacity="0.1" d="M400.826 216.064C397.28 212.516 392.469 210.522 387.453 210.521C382.437 210.52 377.626 212.511 374.078 216.057C370.53 219.604 368.536 224.414 368.535 229.43C368.534 234.446 370.525 239.258 374.072 242.806L387.449 256.17L400.813 242.793C402.569 241.039 403.962 238.956 404.913 236.663C405.864 234.37 406.354 231.913 406.356 229.431C406.357 226.949 405.869 224.491 404.92 222.197C403.971 219.904 402.58 217.82 400.826 216.064Z" fill="black"/>
</g>
<path d="M156.352 287.576C153.824 287.576 151.472 287.112 149.296 286.184C147.152 285.256 145.28 283.976 143.68 282.344C142.112 280.68 140.88 278.728 139.984 276.488C139.088 274.248 138.64 271.784 138.64 269.096C138.64 266.44 139.072 263.992 139.936 261.752C140.832 259.48 142.08 257.528 143.68 255.896C145.28 254.232 147.152 252.952 149.296 252.056C151.44 251.128 153.792 250.664 156.352 250.664C158.88 250.664 161.136 251.096 163.12 251.96C165.136 252.824 166.832 253.96 168.208 255.368C169.584 256.744 170.576 258.248 171.184 259.88L166.096 262.28C165.328 260.36 164.096 258.808 162.4 257.624C160.736 256.408 158.72 255.8 156.352 255.8C153.984 255.8 151.888 256.36 150.064 257.48C148.24 258.6 146.816 260.152 145.792 262.136C144.8 264.12 144.304 266.44 144.304 269.096C144.304 271.752 144.8 274.088 145.792 276.104C146.816 278.088 148.24 279.64 150.064 280.76C151.888 281.848 153.984 282.392 156.352 282.392C158.72 282.392 160.736 281.8 162.4 280.616C164.096 279.432 165.328 277.88 166.096 275.96L171.184 278.36C170.576 279.96 169.584 281.464 168.208 282.872C166.832 284.28 165.136 285.416 163.12 286.28C161.136 287.144 158.88 287.576 156.352 287.576ZM188.54 287.576C186.044 287.576 183.756 286.984 181.676 285.8C179.628 284.616 177.996 283 176.78 280.952C175.564 278.904 174.956 276.584 174.956 273.992C174.956 271.368 175.564 269.048 176.78 267.032C177.996 264.984 179.628 263.384 181.676 262.232C183.724 261.048 186.012 260.456 188.54 260.456C191.1 260.456 193.388 261.048 195.404 262.232C197.452 263.384 199.068 264.984 200.252 267.032C201.468 269.048 202.076 271.368 202.076 273.992C202.076 276.616 201.468 278.952 200.252 281C199.036 283.048 197.404 284.664 195.356 285.848C193.308 287 191.036 287.576 188.54 287.576ZM188.54 282.536C190.076 282.536 191.436 282.168 192.62 281.432C193.804 280.696 194.732 279.688 195.404 278.408C196.108 277.096 196.46 275.624 196.46 273.992C196.46 272.36 196.108 270.904 195.404 269.624C194.732 268.344 193.804 267.336 192.62 266.6C191.436 265.864 190.076 265.496 188.54 265.496C187.036 265.496 185.676 265.864 184.46 266.6C183.276 267.336 182.332 268.344 181.628 269.624C180.956 270.904 180.62 272.36 180.62 273.992C180.62 275.624 180.956 277.096 181.628 278.408C182.332 279.688 183.276 280.696 184.46 281.432C185.676 282.168 187.036 282.536 188.54 282.536ZM207.371 287V261.032H212.555V266.648L211.883 265.784C212.427 264.024 213.419 262.696 214.859 261.8C216.299 260.904 217.947 260.456 219.803 260.456C221.883 260.456 223.723 261.016 225.323 262.136C226.955 263.224 228.043 264.68 228.587 266.504L227.051 266.648C227.819 264.568 228.987 263.016 230.555 261.992C232.155 260.968 233.979 260.456 236.027 260.456C237.819 260.456 239.435 260.872 240.875 261.704C242.347 262.536 243.515 263.688 244.379 265.16C245.243 266.632 245.675 268.312 245.675 270.2V287H240.251V271.688C240.251 270.376 240.011 269.272 239.531 268.376C239.083 267.448 238.443 266.744 237.611 266.264C236.811 265.752 235.867 265.496 234.779 265.496C233.691 265.496 232.731 265.752 231.899 266.264C231.067 266.744 230.411 267.448 229.931 268.376C229.451 269.304 229.211 270.408 229.211 271.688V287H223.835V271.688C223.835 270.376 223.595 269.272 223.115 268.376C222.667 267.448 222.027 266.744 221.195 266.264C220.395 265.752 219.435 265.496 218.315 265.496C217.227 265.496 216.267 265.752 215.435 266.264C214.603 266.744 213.947 267.448 213.467 268.376C213.019 269.304 212.795 270.408 212.795 271.688V287H207.371ZM251.48 287V261.032H256.905V287H251.48ZM251.48 257.48V251.24H256.905V257.48H251.48ZM263.246 287V261.032H268.43V266.12L267.806 265.448C268.446 263.816 269.47 262.584 270.878 261.752C272.286 260.888 273.918 260.456 275.774 260.456C277.694 260.456 279.39 260.872 280.862 261.704C282.334 262.536 283.486 263.688 284.318 265.16C285.15 266.632 285.566 268.328 285.566 270.248V287H280.19V271.688C280.19 270.376 279.95 269.272 279.47 268.376C278.99 267.448 278.302 266.744 277.406 266.264C276.542 265.752 275.55 265.496 274.43 265.496C273.31 265.496 272.302 265.752 271.406 266.264C270.542 266.744 269.87 267.448 269.39 268.376C268.91 269.304 268.67 270.408 268.67 271.688V287H263.246ZM303.899 297.56C302.011 297.56 300.267 297.256 298.667 296.648C297.067 296.04 295.691 295.192 294.539 294.104C293.387 293.048 292.523 291.8 291.947 290.36L296.939 288.296C297.387 289.512 298.203 290.52 299.387 291.32C300.603 292.12 302.091 292.52 303.851 292.52C305.227 292.52 306.459 292.248 307.547 291.704C308.635 291.192 309.499 290.424 310.139 289.4C310.779 288.408 311.099 287.208 311.099 285.8V279.944L312.059 281.048C311.163 282.712 309.915 283.976 308.315 284.84C306.747 285.704 304.971 286.136 302.987 286.136C300.587 286.136 298.427 285.576 296.507 284.456C294.587 283.336 293.067 281.8 291.947 279.848C290.859 277.896 290.315 275.704 290.315 273.272C290.315 270.808 290.859 268.616 291.947 266.696C293.067 264.776 294.571 263.256 296.459 262.136C298.347 261.016 300.507 260.456 302.939 260.456C304.923 260.456 306.683 260.888 308.219 261.752C309.787 262.584 311.067 263.8 312.059 265.4L311.339 266.744V261.032H316.475V285.8C316.475 288.04 315.931 290.04 314.843 291.8C313.787 293.592 312.315 295 310.427 296.024C308.539 297.048 306.363 297.56 303.899 297.56ZM303.611 281.096C305.051 281.096 306.331 280.76 307.451 280.088C308.571 279.384 309.451 278.456 310.091 277.304C310.763 276.12 311.099 274.792 311.099 273.32C311.099 271.848 310.763 270.52 310.091 269.336C309.419 268.152 308.523 267.224 307.403 266.552C306.283 265.848 305.019 265.496 303.611 265.496C302.139 265.496 300.827 265.848 299.675 266.552C298.523 267.224 297.611 268.152 296.939 269.336C296.299 270.488 295.979 271.816 295.979 273.32C295.979 274.76 296.299 276.072 296.939 277.256C297.611 278.44 298.523 279.384 299.675 280.088C300.827 280.76 302.139 281.096 303.611 281.096ZM344.271 287.576C342.031 287.576 339.951 287.16 338.031 286.328C336.111 285.464 334.479 284.296 333.135 282.824C331.791 281.352 330.799 279.656 330.159 277.736L334.959 275.72C335.823 277.928 337.087 279.624 338.751 280.808C340.415 281.992 342.335 282.584 344.511 282.584C345.791 282.584 346.911 282.392 347.871 282.008C348.831 281.592 349.567 281.016 350.079 280.28C350.623 279.544 350.895 278.696 350.895 277.736C350.895 276.424 350.527 275.384 349.791 274.616C349.055 273.848 347.967 273.24 346.527 272.792L339.807 270.68C337.119 269.848 335.071 268.584 333.663 266.888C332.255 265.16 331.551 263.144 331.551 260.84C331.551 258.824 332.047 257.064 333.039 255.56C334.031 254.024 335.391 252.824 337.119 251.96C338.879 251.096 340.879 250.664 343.119 250.664C345.263 250.664 347.215 251.048 348.975 251.816C350.735 252.552 352.239 253.576 353.487 254.888C354.767 256.2 355.695 257.72 356.271 259.448L351.567 261.512C350.863 259.624 349.759 258.168 348.255 257.144C346.783 256.12 345.071 255.608 343.119 255.608C341.935 255.608 340.895 255.816 339.999 256.232C339.103 256.616 338.399 257.192 337.887 257.96C337.407 258.696 337.167 259.56 337.167 260.552C337.167 261.704 337.535 262.728 338.271 263.624C339.007 264.52 340.127 265.192 341.631 265.64L347.871 267.608C350.719 268.472 352.863 269.72 354.303 271.352C355.743 272.952 356.463 274.952 356.463 277.352C356.463 279.336 355.935 281.096 354.879 282.632C353.855 284.168 352.431 285.384 350.607 286.28C348.783 287.144 346.671 287.576 344.271 287.576ZM374.821 287.576C372.325 287.576 370.037 286.984 367.957 285.8C365.909 284.616 364.277 283 363.061 280.952C361.845 278.904 361.237 276.584 361.237 273.992C361.237 271.368 361.845 269.048 363.061 267.032C364.277 264.984 365.909 263.384 367.957 262.232C370.005 261.048 372.293 260.456 374.821 260.456C377.381 260.456 379.669 261.048 381.685 262.232C383.733 263.384 385.349 264.984 386.533 267.032C387.749 269.048 388.357 271.368 388.357 273.992C388.357 276.616 387.749 278.952 386.533 281C385.317 283.048 383.685 284.664 381.637 285.848C379.589 287 377.317 287.576 374.821 287.576ZM374.821 282.536C376.357 282.536 377.717 282.168 378.901 281.432C380.085 280.696 381.013 279.688 381.685 278.408C382.389 277.096 382.741 275.624 382.741 273.992C382.741 272.36 382.389 270.904 381.685 269.624C381.013 268.344 380.085 267.336 378.901 266.6C377.717 265.864 376.357 265.496 374.821 265.496C373.317 265.496 371.957 265.864 370.741 266.6C369.557 267.336 368.613 268.344 367.909 269.624C367.237 270.904 366.901 272.36 366.901 273.992C366.901 275.624 367.237 277.096 367.909 278.408C368.613 279.688 369.557 280.696 370.741 281.432C371.957 282.168 373.317 282.536 374.821 282.536ZM406.18 287.576C403.684 287.576 401.396 286.984 399.316 285.8C397.268 284.616 395.636 283 394.42 280.952C393.204 278.904 392.596 276.584 392.596 273.992C392.596 271.368 393.204 269.048 394.42 267.032C395.636 264.984 397.268 263.384 399.316 262.232C401.364 261.048 403.652 260.456 406.18 260.456C408.74 260.456 411.028 261.048 413.044 262.232C415.092 263.384 416.708 264.984 417.892 267.032C419.108 269.048 419.716 271.368 419.716 273.992C419.716 276.616 419.108 278.952 417.892 281C416.676 283.048 415.044 284.664 412.996 285.848C410.948 287 408.676 287.576 406.18 287.576ZM406.18 282.536C407.716 282.536 409.076 282.168 410.26 281.432C411.444 280.696 412.372 279.688 413.044 278.408C413.748 277.096 414.1 275.624 414.1 273.992C414.1 272.36 413.748 270.904 413.044 269.624C412.372 268.344 411.444 267.336 410.26 266.6C409.076 265.864 407.716 265.496 406.18 265.496C404.676 265.496 403.316 265.864 402.1 266.6C400.916 267.336 399.972 268.344 399.268 269.624C398.596 270.904 398.26 272.36 398.26 273.992C398.26 275.624 398.596 277.096 399.268 278.408C399.972 279.688 400.916 280.696 402.1 281.432C403.316 282.168 404.676 282.536 406.18 282.536ZM425.012 287V261.032H430.196V266.12L429.572 265.448C430.212 263.816 431.236 262.584 432.644 261.752C434.052 260.888 435.684 260.456 437.54 260.456C439.46 260.456 441.156 260.872 442.628 261.704C444.1 262.536 445.252 263.688 446.084 265.16C446.916 266.632 447.332 268.328 447.332 270.248V287H441.956V271.688C441.956 270.376 441.716 269.272 441.236 268.376C440.756 267.448 440.068 266.744 439.172 266.264C438.308 265.752 437.316 265.496 436.196 265.496C435.076 265.496 434.068 265.752 433.172 266.264C432.308 266.744 431.636 267.448 431.156 268.376C430.676 269.304 430.436 270.408 430.436 271.688V287H425.012Z" fill="#0A0A29"/>
<path d="M233.264 333L239.672 315.12H242.456L248.864 333H246.344L244.88 328.8H237.248L235.784 333H233.264ZM237.992 326.64H244.136L240.728 316.824H241.4L237.992 326.64ZM250.853 337.8V320.064H253.037V322.848L252.749 322.296C253.229 321.528 253.885 320.92 254.717 320.472C255.549 320.008 256.501 319.776 257.573 319.776C258.789 319.776 259.877 320.072 260.837 320.664C261.813 321.256 262.581 322.064 263.141 323.088C263.701 324.096 263.981 325.248 263.981 326.544C263.981 327.808 263.701 328.952 263.141 329.976C262.581 331 261.813 331.808 260.837 332.4C259.877 332.992 258.781 333.288 257.549 333.288C256.509 333.288 255.557 333.056 254.693 332.592C253.845 332.128 253.189 331.472 252.725 330.624L253.085 330.24V337.8H250.853ZM257.381 331.128C258.197 331.128 258.925 330.928 259.565 330.528C260.205 330.128 260.701 329.584 261.053 328.896C261.421 328.192 261.605 327.408 261.605 326.544C261.605 325.648 261.421 324.864 261.053 324.192C260.701 323.504 260.205 322.96 259.565 322.56C258.925 322.144 258.197 321.936 257.381 321.936C256.565 321.936 255.829 322.136 255.173 322.536C254.533 322.936 254.021 323.488 253.637 324.192C253.269 324.88 253.085 325.664 253.085 326.544C253.085 327.408 253.269 328.192 253.637 328.896C254.021 329.584 254.533 330.128 255.173 330.528C255.829 330.928 256.565 331.128 257.381 331.128ZM266.908 337.8V320.064H269.092V322.848L268.804 322.296C269.284 321.528 269.94 320.92 270.772 320.472C271.604 320.008 272.556 319.776 273.628 319.776C274.844 319.776 275.932 320.072 276.892 320.664C277.868 321.256 278.636 322.064 279.196 323.088C279.756 324.096 280.036 325.248 280.036 326.544C280.036 327.808 279.756 328.952 279.196 329.976C278.636 331 277.868 331.808 276.892 332.4C275.932 332.992 274.836 333.288 273.604 333.288C272.564 333.288 271.612 333.056 270.748 332.592C269.9 332.128 269.244 331.472 268.78 330.624L269.14 330.24V337.8H266.908ZM273.436 331.128C274.252 331.128 274.98 330.928 275.62 330.528C276.26 330.128 276.756 329.584 277.108 328.896C277.476 328.192 277.66 327.408 277.66 326.544C277.66 325.648 277.476 324.864 277.108 324.192C276.756 323.504 276.26 322.96 275.62 322.56C274.98 322.144 274.252 321.936 273.436 321.936C272.62 321.936 271.884 322.136 271.228 322.536C270.588 322.936 270.076 323.488 269.692 324.192C269.324 324.88 269.14 325.664 269.14 326.544C269.14 327.408 269.324 328.192 269.692 328.896C270.076 329.584 270.588 330.128 271.228 330.528C271.884 330.928 272.62 331.128 273.436 331.128ZM282.962 333V320.064H285.146V322.44L284.906 322.104C285.21 321.368 285.674 320.824 286.298 320.472C286.922 320.104 287.682 319.92 288.578 319.92H289.37V322.032H288.242C287.33 322.032 286.594 322.32 286.034 322.896C285.474 323.456 285.194 324.256 285.194 325.296V333H282.962ZM295.145 333.288C294.297 333.288 293.545 333.136 292.889 332.832C292.249 332.512 291.745 332.08 291.377 331.536C291.009 330.976 290.825 330.336 290.825 329.616C290.825 328.928 290.969 328.312 291.257 327.768C291.561 327.208 292.025 326.736 292.649 326.352C293.289 325.968 294.089 325.696 295.049 325.536L299.849 324.744V326.616L295.553 327.336C294.721 327.48 294.113 327.744 293.729 328.128C293.361 328.512 293.177 328.984 293.177 329.544C293.177 330.072 293.385 330.512 293.801 330.864C294.233 331.216 294.769 331.392 295.409 331.392C296.225 331.392 296.929 331.224 297.521 330.888C298.129 330.536 298.601 330.064 298.937 329.472C299.289 328.88 299.465 328.224 299.465 327.504V324.216C299.465 323.512 299.201 322.944 298.673 322.512C298.161 322.064 297.481 321.84 296.633 321.84C295.897 321.84 295.241 322.032 294.665 322.416C294.105 322.784 293.689 323.28 293.417 323.904L291.473 322.896C291.713 322.304 292.097 321.776 292.625 321.312C293.153 320.832 293.769 320.456 294.473 320.184C295.177 319.912 295.913 319.776 296.681 319.776C297.673 319.776 298.545 319.968 299.297 320.352C300.049 320.72 300.633 321.24 301.049 321.912C301.481 322.568 301.697 323.336 301.697 324.216V333H299.513V330.552L299.921 330.696C299.649 331.208 299.281 331.656 298.817 332.04C298.353 332.424 297.809 332.728 297.185 332.952C296.561 333.176 295.881 333.288 295.145 333.288ZM305.158 333V320.064H307.39V333H305.158ZM305.158 318V315.12H307.39V318H305.158ZM315.485 333.288C314.189 333.288 313.061 332.968 312.101 332.328C311.141 331.688 310.461 330.824 310.061 329.736L311.837 328.872C312.205 329.64 312.709 330.248 313.349 330.696C313.989 331.144 314.701 331.368 315.485 331.368C316.189 331.368 316.773 331.2 317.237 330.864C317.701 330.528 317.933 330.088 317.933 329.544C317.933 329.16 317.821 328.856 317.597 328.632C317.389 328.392 317.133 328.208 316.829 328.08C316.525 327.936 316.245 327.832 315.989 327.768L314.045 327.216C312.877 326.88 312.021 326.4 311.477 325.776C310.949 325.152 310.685 324.424 310.685 323.592C310.685 322.824 310.877 322.16 311.261 321.6C311.661 321.024 312.197 320.576 312.869 320.256C313.557 319.936 314.325 319.776 315.173 319.776C316.309 319.776 317.325 320.064 318.221 320.64C319.133 321.216 319.781 322.024 320.165 323.064L318.341 323.904C318.053 323.232 317.621 322.704 317.045 322.32C316.469 321.92 315.821 321.72 315.101 321.72C314.445 321.72 313.925 321.888 313.541 322.224C313.157 322.544 312.965 322.952 312.965 323.448C312.965 323.816 313.061 324.12 313.253 324.36C313.445 324.584 313.677 324.76 313.949 324.888C314.221 325 314.485 325.096 314.741 325.176L316.853 325.8C317.909 326.104 318.725 326.576 319.301 327.216C319.893 327.856 320.189 328.624 320.189 329.52C320.189 330.24 319.989 330.888 319.589 331.464C319.189 332.04 318.637 332.488 317.933 332.808C317.229 333.128 316.413 333.288 315.485 333.288ZM326.903 333.288C326.055 333.288 325.303 333.136 324.647 332.832C324.007 332.512 323.503 332.08 323.135 331.536C322.767 330.976 322.583 330.336 322.583 329.616C322.583 328.928 322.727 328.312 323.015 327.768C323.319 327.208 323.783 326.736 324.407 326.352C325.047 325.968 325.847 325.696 326.807 325.536L331.607 324.744V326.616L327.311 327.336C326.479 327.48 325.871 327.744 325.487 328.128C325.119 328.512 324.935 328.984 324.935 329.544C324.935 330.072 325.143 330.512 325.559 330.864C325.991 331.216 326.527 331.392 327.167 331.392C327.983 331.392 328.687 331.224 329.279 330.888C329.887 330.536 330.359 330.064 330.695 329.472C331.047 328.88 331.223 328.224 331.223 327.504V324.216C331.223 323.512 330.959 322.944 330.431 322.512C329.919 322.064 329.239 321.84 328.391 321.84C327.655 321.84 326.999 322.032 326.423 322.416C325.863 322.784 325.447 323.28 325.175 323.904L323.231 322.896C323.471 322.304 323.855 321.776 324.383 321.312C324.911 320.832 325.527 320.456 326.231 320.184C326.935 319.912 327.671 319.776 328.439 319.776C329.431 319.776 330.303 319.968 331.055 320.352C331.807 320.72 332.391 321.24 332.807 321.912C333.239 322.568 333.455 323.336 333.455 324.216V333H331.271V330.552L331.679 330.696C331.407 331.208 331.039 331.656 330.575 332.04C330.111 332.424 329.567 332.728 328.943 332.952C328.319 333.176 327.639 333.288 326.903 333.288ZM336.916 333V314.832H339.148V333H336.916ZM347.243 333.288C345.947 333.288 344.819 332.968 343.859 332.328C342.899 331.688 342.219 330.824 341.819 329.736L343.595 328.872C343.963 329.64 344.467 330.248 345.107 330.696C345.747 331.144 346.459 331.368 347.243 331.368C347.947 331.368 348.531 331.2 348.995 330.864C349.459 330.528 349.691 330.088 349.691 329.544C349.691 329.16 349.579 328.856 349.355 328.632C349.147 328.392 348.891 328.208 348.587 328.08C348.283 327.936 348.003 327.832 347.747 327.768L345.803 327.216C344.635 326.88 343.779 326.4 343.235 325.776C342.707 325.152 342.443 324.424 342.443 323.592C342.443 322.824 342.635 322.16 343.019 321.6C343.419 321.024 343.955 320.576 344.627 320.256C345.315 319.936 346.083 319.776 346.931 319.776C348.067 319.776 349.083 320.064 349.979 320.64C350.891 321.216 351.539 322.024 351.923 323.064L350.099 323.904C349.811 323.232 349.379 322.704 348.803 322.32C348.227 321.92 347.579 321.72 346.859 321.72C346.203 321.72 345.683 321.888 345.299 322.224C344.915 322.544 344.723 322.952 344.723 323.448C344.723 323.816 344.819 324.12 345.011 324.36C345.203 324.584 345.435 324.76 345.707 324.888C345.979 325 346.243 325.096 346.499 325.176L348.611 325.8C349.667 326.104 350.483 326.576 351.059 327.216C351.651 327.856 351.947 328.624 351.947 329.52C351.947 330.24 351.747 330.888 351.347 331.464C350.947 332.04 350.395 332.488 349.691 332.808C348.987 333.128 348.171 333.288 347.243 333.288Z" fill="#0A0A29"/>
<g filter="url(#filter1_d_763_5449)">
<path d="M333 197C333 219.091 315.091 237 293 237C270.909 237 253 219.091 253 197C253 174.909 270.909 157 293 157C315.091 157 333 174.909 333 197ZM261 197C261 214.673 275.327 229 293 229C310.673 229 325 214.673 325 197C325 179.327 310.673 165 293 165C275.327 165 261 179.327 261 197Z" fill="white"/>
<path d="M263.757 217.997C261.963 219.285 259.444 218.883 258.341 216.969C255.883 212.703 254.228 208.01 253.471 203.122C252.51 196.914 253.024 190.566 254.973 184.593C256.922 178.62 260.25 173.19 264.688 168.743C269.126 164.297 274.55 160.958 280.519 158.997C286.488 157.037 292.835 156.51 299.045 157.459C305.256 158.409 311.155 160.808 316.266 164.462C321.377 168.117 325.554 172.923 328.461 178.493C330.75 182.878 332.2 187.639 332.75 192.531C332.996 194.726 331.206 196.543 328.997 196.57C326.788 196.596 325.002 194.819 324.7 192.631C324.199 188.996 323.076 185.465 321.369 182.195C319.044 177.739 315.701 173.893 311.613 170.97C307.524 168.046 302.805 166.127 297.836 165.368C292.868 164.608 287.79 165.029 283.015 166.598C278.24 168.166 273.901 170.837 270.35 174.395C266.8 177.952 264.137 182.296 262.578 187.074C261.019 191.853 260.608 196.931 261.377 201.898C261.942 205.543 263.131 209.053 264.882 212.277C265.937 214.218 265.552 216.708 263.757 217.997Z" fill="#3333FF"/>
</g>
</g>
</g>
<defs>
<filter id="filter0_di_763_5449" x="0" y="0" width="594" height="558" filterUnits="userSpaceOnUse" color-interpolation-filters="sRGB">
<feFlood flood-opacity="0" result="BackgroundImageFix"/>
<feColorMatrix in="SourceAlpha" type="matrix" values="0 0 0 0 0 0 0 0 0 0 0 0 0 0 0 0 0 0 127 0" result="hardAlpha"/>
<feOffset dx="4" dy="4"/>
<feGaussianBlur stdDeviation="10"/>
<feComposite in2="hardAlpha" operator="out"/>
<feColorMatrix type="matrix" values="0 0 0 0 0 0 0 0 0 0 0 0 0 0 0 0 0 0 0.25 0"/>
<feBlend mode="normal" in2="BackgroundImageFix" result="effect1_dropShadow_763_5449"/>
<feBlend mode="normal" in="SourceGraphic" in2="effect1_dropShadow_763_5449" result="shape"/>
<feColorMatrix in="SourceAlpha" type="matrix" values="0 0 0 0 0 0 0 0 0 0 0 0 0 0 0 0 0 0 127 0" result="hardAlpha"/>
<feOffset dx="4" dy="4"/>
<feGaussianBlur stdDeviation="10"/>
<feComposite in2="hardAlpha" operator="arithmetic" k2="-1" k3="1"/>
<feColorMatrix type="matrix" values="0 0 0 0 0 0 0 0 0 0 0 0 0 0 0 0 0 0 0.1 0"/>
<feBlend mode="normal" in2="shape" result="effect2_innerShadow_763_5449"/>
</filter>
<filter id="filter1_d_763_5449" x="249" y="157" width="88" height="88" filterUnits="userSpaceOnUse" color-interpolation-filters="sRGB">
<feFlood flood-opacity="0" result="BackgroundImageFix"/>
<feColorMatrix in="SourceAlpha" type="matrix" values="0 0 0 0 0 0 0 0 0 0 0 0 0 0 0 0 0 0 127 0" result="hardAlpha"/>
<feOffset dy="4"/>
<feGaussianBlur stdDeviation="2"/>
<feComposite in2="hardAlpha" operator="out"/>
<feColorMatrix type="matrix" values="0 0 0 0 0 0 0 0 0 0 0 0 0 0 0 0 0 0 0.25 0"/>
<feBlend mode="normal" in2="BackgroundImageFix" result="effect1_dropShadow_763_5449"/>
<feBlend mode="normal" in="SourceGraphic" in2="effect1_dropShadow_763_5449" result="shape"/>
</filter>
<clipPath id="clip0_763_5449">
<rect x="16" y="16" width="554" height="518" rx="20" fill="white"/>
</clipPath>
</defs>
</svg>
