<svg width="18" height="18" viewBox="0 0 18 18" fill="none" xmlns="http://www.w3.org/2000/svg">
<rect x="0.5" y="0.5" width="17" height="17" rx="1.5" stroke="#0000FF"/>
<path fill-rule="evenodd" clip-rule="evenodd" d="M14.7697 5.23025C14.9172 5.37773 15 5.57772 15 5.78625C15 5.99478 14.9172 6.19477 14.7697 6.34224L8.47842 12.6336C8.33094 12.781 8.13095 12.8638 7.92242 12.8638C7.71389 12.8638 7.5139 12.781 7.36642 12.6336L4.22076 9.48791C4.0775 9.33959 3.99824 9.14094 4.00003 8.93475C4.00182 8.72855 4.08453 8.53131 4.23034 8.3855C4.37614 8.23969 4.57339 8.15698 4.77958 8.15519C4.98578 8.1534 5.18443 8.23267 5.33275 8.37592L7.92242 10.9656L13.6578 5.23025C13.8052 5.08282 14.0052 5 14.2138 5C14.4223 5 14.6223 5.08282 14.7697 5.23025Z" fill="#0000FF"/>
</svg>
