<svg width="20" height="20" viewBox="0 0 20 20" fill="none" xmlns="http://www.w3.org/2000/svg">
<g clip-path="url(#clip0_738_1696)">
<path fill-rule="evenodd" clip-rule="evenodd" d="M17.9549 4.25898C18.1893 4.49339 18.3209 4.81127 18.3209 5.14273C18.3209 5.47418 18.1893 5.79207 17.9549 6.02648L8.58577 15.3956C8.46196 15.5195 8.31496 15.6177 8.15317 15.6848C7.99139 15.7518 7.81798 15.7863 7.64286 15.7863C7.46774 15.7863 7.29433 15.7518 7.13254 15.6848C6.97076 15.6177 6.82376 15.5195 6.69994 15.3956L2.04494 10.7415C1.92555 10.6262 1.83032 10.4882 1.76481 10.3357C1.6993 10.1832 1.66482 10.0192 1.66338 9.85323C1.66194 9.68725 1.69356 9.52266 1.75641 9.36904C1.81926 9.21542 1.91208 9.07585 2.02945 8.95848C2.14681 8.84112 2.28638 8.7483 2.44 8.68545C2.59362 8.6226 2.75822 8.59097 2.92419 8.59241C3.09017 8.59386 3.25419 8.62834 3.4067 8.69385C3.5592 8.75936 3.69713 8.85459 3.81244 8.97398L7.64244 12.804L16.1866 4.25898C16.3027 4.14282 16.4405 4.05067 16.5922 3.98781C16.7439 3.92494 16.9066 3.89258 17.0708 3.89258C17.235 3.89258 17.3976 3.92494 17.5493 3.98781C17.701 4.05067 17.8389 4.14282 17.9549 4.25898Z" fill="#00080F"/>
</g>
<defs>
<clipPath id="clip0_738_1696">
<rect width="20" height="20" fill="white"/>
</clipPath>
</defs>
</svg>
