<svg width="60" height="60" viewBox="0 0 60 60" fill="none" xmlns="http://www.w3.org/2000/svg">
<path d="M29.9997 26.6335C34.3812 26.6335 37.9331 23.1264 37.9331 18.8001C37.9331 14.4739 34.3812 10.9668 29.9997 10.9668C25.6183 10.9668 22.0664 14.4739 22.0664 18.8001C22.0664 23.1264 25.6183 26.6335 29.9997 26.6335Z" fill="#0000FF"/>
<path d="M17.9664 19.5833H18.7664V18.8666C18.7712 16.7826 19.3592 14.7415 20.4637 12.9743C21.5682 11.2071 23.1452 9.78418 25.0164 8.8666C24.4624 7.59086 23.5733 6.48898 22.4434 5.67799C21.3136 4.86699 19.9851 4.37716 18.5992 4.26053C17.2133 4.14389 15.8217 4.4048 14.5722 5.01555C13.3226 5.62629 12.2618 6.56407 11.5025 7.72927C10.7431 8.89448 10.3135 10.2436 10.2593 11.6333C10.2051 13.0231 10.5283 14.4016 11.1947 15.6224C11.861 16.8432 12.8455 17.8607 14.0437 18.5669C15.2419 19.2731 16.6089 19.6416 17.9997 19.6333L17.9664 19.5833ZM41.2664 18.7999V19.5166H42.0664C43.4386 19.5028 44.7818 19.1194 45.9545 18.4066C47.1272 17.6938 48.0861 16.6781 48.7301 15.4663C49.3742 14.2545 49.6797 12.8915 49.6145 11.5207C49.5492 10.1499 49.1156 8.82208 48.3593 7.67695C47.6031 6.53182 46.5521 5.61175 45.3169 5.01359C44.0818 4.41543 42.7083 4.16129 41.341 4.27794C39.9736 4.39458 38.663 4.87769 37.547 5.67641C36.4311 6.47513 35.5511 7.55992 34.9997 8.8166C36.8714 9.73059 38.4502 11.1499 39.5576 12.9141C40.665 14.6782 41.2569 16.717 41.2664 18.7999ZM37.1497 27.4166C40.4635 28.0725 43.6676 29.1948 46.6664 30.7499C47.0889 30.982 47.4715 31.2802 47.7997 31.6333H56.6664V25.9333C56.668 25.7146 56.6099 25.4997 56.4982 25.3117C56.3866 25.1238 56.2258 24.9698 56.033 24.8666C51.7133 22.6071 46.908 21.4344 42.033 21.4499H40.933C40.3554 23.7978 39.027 25.8928 37.1497 27.4166ZM10.883 34.8666C10.88 34.0272 11.1067 33.203 11.5385 32.4832C11.9704 31.7635 12.591 31.1756 13.333 30.7833C16.3318 29.2281 19.5359 28.1058 22.8497 27.4499C20.9815 25.9391 19.6539 23.863 19.0664 21.5333H17.9664C13.0914 21.5177 8.28612 22.6905 3.96637 24.9499C3.77365 25.0532 3.6128 25.2071 3.50118 25.3951C3.38956 25.5831 3.33142 25.798 3.33304 26.0166V36.6666H10.883V34.8666ZM35.7664 44.4833H45.6997V46.8166H35.7664V44.4833Z" fill="#0000FF"/>
<path d="M54.6835 35.4331H43.2335V33.7665C43.2335 33.3244 43.0579 32.9005 42.7453 32.5879C42.4328 32.2754 42.0089 32.0998 41.5668 32.0998C41.1248 32.0998 40.7009 32.2754 40.3883 32.5879C40.0758 32.9005 39.9002 33.3244 39.9002 33.7665V35.4331H36.6668V30.7165C34.474 30.256 32.2407 30.0159 30.0002 29.9998C24.7398 29.9779 19.5545 31.2484 14.9002 33.6998C14.6928 33.8073 14.5193 33.9701 14.3987 34.1701C14.2781 34.3701 14.2152 34.5996 14.2168 34.8331V44.1831H26.0668V54.3331C26.0668 54.7751 26.2424 55.1991 26.555 55.5116C26.8675 55.8242 27.2915 55.9998 27.7335 55.9998H54.6835C55.1255 55.9998 55.5494 55.8242 55.862 55.5116C56.1746 55.1991 56.3502 54.7751 56.3502 54.3331V37.0998C56.3502 36.6578 56.1746 36.2338 55.862 35.9213C55.5494 35.6087 55.1255 35.4331 54.6835 35.4331ZM53.0168 52.6998H29.4002V38.7665H39.9002V40.2831C39.9002 40.7252 40.0758 41.1491 40.3883 41.4616C40.7009 41.7742 41.1248 41.9498 41.5668 41.9498C42.0089 41.9498 42.4328 41.7742 42.7453 41.4616C43.0579 41.1491 43.2335 40.7252 43.2335 40.2831V38.7665H53.0168V52.6998Z" fill="#0000FF"/>
</svg>
