<svg width="60" height="60" viewBox="0 0 60 60" fill="none" xmlns="http://www.w3.org/2000/svg">
<path d="M28.0997 26.9835C34.0459 26.9835 38.8663 22.1631 38.8663 16.2169C38.8663 10.2706 34.0459 5.4502 28.0997 5.4502C22.1534 5.4502 17.333 10.2706 17.333 16.2169C17.333 22.1631 22.1534 26.9835 28.0997 26.9835Z" fill="#0000FF"/>
<path d="M35 46.667H46.6667V49.0003H35V46.667Z" fill="#0000FF"/>
<path d="M24.9998 50.0004V55.0004C24.9998 55.4424 25.1754 55.8663 25.4879 56.1789C25.8005 56.4915 26.2244 56.6671 26.6664 56.6671H54.9998C55.4418 56.6671 55.8657 56.4915 56.1783 56.1789C56.4908 55.8663 56.6664 55.4424 56.6664 55.0004V38.3337C56.6664 37.8917 56.4908 37.4678 56.1783 37.1552C55.8657 36.8427 55.4418 36.6671 54.9998 36.6671H43.3331V34.2171C43.3331 33.775 43.1575 33.3511 42.8449 33.0385C42.5324 32.726 42.1085 32.5504 41.6664 32.5504C41.2244 32.5504 40.8005 32.726 40.4879 33.0385C40.1754 33.3511 39.9998 33.775 39.9998 34.2171V36.6671H36.6664V30.7004C33.8343 30.2378 30.9695 30.0037 28.0998 30.0004C21.7711 29.9735 15.5133 31.3331 9.76643 33.9837C8.82057 34.4301 8.02261 35.1384 7.46723 36.0247C6.91184 36.9109 6.62235 37.9379 6.6331 38.9837V50.0004H24.9998ZM53.3331 53.3337H28.3331V40.0004H39.9998V40.7004C39.9998 41.1424 40.1754 41.5663 40.4879 41.8789C40.8005 42.1915 41.2244 42.3671 41.6664 42.3671C42.1085 42.3671 42.5324 42.1915 42.8449 41.8789C43.1575 41.5663 43.3331 41.1424 43.3331 40.7004V40.0004H53.3331V53.3337Z" fill="#0000FF"/>
</svg>
