<svg width="22" height="22" viewBox="0 0 22 22" fill="none" xmlns="http://www.w3.org/2000/svg">
<path d="M10.9995 9.65338C12.7521 9.65338 14.1728 8.25054 14.1728 6.52005C14.1728 4.78956 12.7521 3.38672 10.9995 3.38672C9.24692 3.38672 7.82617 4.78956 7.82617 6.52005C7.82617 8.25054 9.24692 9.65338 10.9995 9.65338Z" fill="#00080F"/>
<path d="M6.18635 6.8333H6.50635V6.54664C6.5083 5.71304 6.74347 4.89661 7.18528 4.18972C7.62709 3.48282 8.2579 2.91367 9.00635 2.54664C8.78478 2.03635 8.42913 1.59559 7.97718 1.2712C7.52523 0.946797 6.99385 0.750865 6.43949 0.704211C5.88513 0.657556 5.32848 0.76192 4.82867 1.00622C4.32885 1.25052 3.90454 1.62563 3.60079 2.09171C3.29705 2.55779 3.12521 3.09744 3.10353 3.65334C3.08185 4.20924 3.21114 4.76063 3.47767 5.24895C3.7442 5.73727 4.13801 6.14429 4.61728 6.42677C5.09655 6.70925 5.64338 6.85665 6.19969 6.8533L6.18635 6.8333ZM15.5064 6.51997V6.80664H15.8264C16.3753 6.80113 16.9125 6.64775 17.3816 6.36263C17.8507 6.07752 18.2342 5.67122 18.4919 5.18651C18.7495 4.70179 18.8717 4.15658 18.8456 3.60827C18.8195 3.05996 18.6461 2.52883 18.3435 2.07078C18.041 1.61273 17.6206 1.2447 17.1266 1.00544C16.6325 0.766171 16.0831 0.664517 15.5362 0.711175C14.9892 0.757832 14.465 0.951074 14.0186 1.27056C13.5722 1.59005 13.2202 2.02397 12.9997 2.52664C13.7484 2.89223 14.3799 3.45995 14.8228 4.16562C15.2658 4.8713 15.5026 5.6868 15.5064 6.51997ZM13.8597 9.96664C15.1852 10.229 16.4668 10.6779 17.6664 11.3C17.8354 11.3928 17.9884 11.5121 18.1197 11.6533H21.6664V9.37331C21.667 9.28586 21.6437 9.19989 21.5991 9.1247C21.5545 9.0495 21.4901 8.98793 21.413 8.94664C19.6851 8.04285 17.763 7.57376 15.813 7.57997H15.373C15.142 8.51912 14.6106 9.35714 13.8597 9.96664ZM3.35302 12.9466C3.3518 12.6109 3.44248 12.2812 3.61522 11.9933C3.78797 11.7054 4.0362 11.4702 4.33302 11.3133C5.53254 10.6912 6.81418 10.2423 8.13969 9.97997C7.3924 9.37566 6.86137 8.54519 6.62635 7.6133H6.18635C4.23637 7.6071 2.31425 8.07618 0.586354 8.97997C0.509267 9.02127 0.444925 9.08284 0.400278 9.15803C0.35563 9.23323 0.332374 9.31919 0.333021 9.40664V13.6666H3.35302V12.9466ZM13.3064 16.7933H17.2797V17.7266H13.3064V16.7933Z" fill="#00080F"/>
<path d="M20.8732 13.1734H16.2932V12.5068C16.2932 12.33 16.223 12.1604 16.0979 12.0354C15.9729 11.9103 15.8033 11.8401 15.6265 11.8401C15.4497 11.8401 15.2802 11.9103 15.1551 12.0354C15.0301 12.1604 14.9599 12.33 14.9599 12.5068V13.1734H13.6665V11.2868C12.7894 11.1026 11.8961 11.0066 10.9999 11.0001C8.89571 10.9913 6.82161 11.4996 4.95987 12.4801C4.87694 12.5231 4.80753 12.5882 4.75929 12.6682C4.71105 12.7482 4.68587 12.84 4.68654 12.9334V16.6734H9.42654V20.7334C9.42654 20.9103 9.49677 21.0798 9.6218 21.2048C9.74682 21.3299 9.91639 21.4001 10.0932 21.4001H20.8732C21.05 21.4001 21.2196 21.3299 21.3446 21.2048C21.4696 21.0798 21.5399 20.9103 21.5399 20.7334V13.8401C21.5399 13.6633 21.4696 13.4937 21.3446 13.3687C21.2196 13.2437 21.05 13.1734 20.8732 13.1734ZM20.2065 20.0801H10.7599V14.5068H14.9599V15.1134C14.9599 15.2903 15.0301 15.4598 15.1551 15.5848C15.2802 15.7099 15.4497 15.7801 15.6265 15.7801C15.8033 15.7801 15.9729 15.7099 16.0979 15.5848C16.223 15.4598 16.2932 15.2903 16.2932 15.1134V14.5068H20.2065V20.0801Z" fill="#00080F"/>
</svg>
