<svg width="19" height="20" viewBox="0 0 19 20" fill="none" xmlns="http://www.w3.org/2000/svg">
<path d="M7.99983 4.02965e-08C9.94239 0.000126694 11.8186 0.706882 13.2784 1.98843C14.7383 3.26999 15.6821 5.03882 15.9338 6.965L18.1838 10.504C18.3318 10.737 18.3018 11.084 17.9588 11.232L15.9998 12.07V15C15.9998 15.5304 15.7891 16.0391 15.414 16.4142C15.039 16.7893 14.5303 17 13.9998 17H12.0008L11.9998 20H2.99983V16.306C2.99983 15.126 2.56383 14.009 1.75483 13.001C0.812533 11.8245 0.22181 10.4056 0.0507235 8.908C-0.120363 7.41036 0.13515 5.89486 0.787822 4.53611C1.44049 3.17737 2.46377 2.03066 3.73974 1.22811C5.01571 0.425571 6.49246 -0.000151226 7.99983 4.02965e-08ZM7.99983 2C6.86941 1.99995 5.76197 2.31925 4.80509 2.9211C3.84821 3.52295 3.08081 4.38287 2.59131 5.40181C2.1018 6.42075 1.9101 7.55724 2.03828 8.68037C2.16646 9.8035 2.60932 10.8676 3.31583 11.75C4.40983 13.114 4.99983 14.667 4.99983 16.306V18H9.99983L10.0018 15H13.9998V10.752L15.5498 10.088L14.0068 7.663L13.9498 7.221C13.7605 5.77691 13.0525 4.45095 11.9578 3.49033C10.863 2.52972 9.45628 2.00002 7.99983 2ZM7.46983 5.763L7.99983 6.293L8.52983 5.763C8.85982 5.44416 9.30184 5.26768 9.76068 5.27157C10.2195 5.27546 10.6585 5.45942 10.983 5.78382C11.3075 6.10822 11.4917 6.5471 11.4958 7.00595C11.4998 7.46479 11.3235 7.90688 11.0048 8.237L7.99983 11.243L4.99483 8.237C4.82772 8.07553 4.69444 7.8824 4.60277 7.66888C4.5111 7.45535 4.46287 7.22571 4.4609 6.99334C4.45892 6.76098 4.50325 6.53055 4.59128 6.3155C4.67932 6.10045 4.8093 5.90509 4.97365 5.74081C5.13799 5.57653 5.33341 5.44662 5.54849 5.35868C5.76358 5.27073 5.99403 5.2265 6.22639 5.22856C6.45875 5.23063 6.68838 5.27895 6.90187 5.37071C7.11536 5.46247 7.30843 5.59582 7.46983 5.763Z" fill="#00080F"/>
</svg>
